<?xml version="1.0" standalone="no"?>
<!DOCTYPE svg PUBLIC "-//W3C//DTD SVG 20010904//EN"
 "http://www.w3.org/TR/2001/REC-SVG-20010904/DTD/svg10.dtd">
<svg version="1.0" xmlns="http://www.w3.org/2000/svg"
 width="1092.000000pt" height="1280.000000pt" viewBox="0 0 1092.000000 1280.000000"
 preserveAspectRatio="xMidYMid meet">
<metadata>
Created by potrace 1.15, written by Peter Selinger 2001-2017
</metadata>
<g transform="translate(0.000000,1280.000000) scale(0.100000,-0.100000)"
fill="#000000" stroke="none">
<path d="M1864 12750 c-33 -26 -90 -81 -125 -121 -132 -151 -164 -179 -198
-179 -42 0 -65 39 -85 147 -18 97 -35 138 -56 138 -21 0 -69 -95 -146 -289
-105 -264 -160 -331 -239 -293 -27 13 -42 33 -74 100 -56 117 -74 129 -106 67
-32 -61 -40 -359 -13 -449 10 -32 12 -33 50 -28 53 7 67 21 44 46 -9 10 -26
62 -37 116 -10 54 -26 124 -34 155 -8 32 -15 62 -15 66 0 5 35 -25 78 -66 42
-42 91 -88 107 -102 l31 -28 94 106 c152 170 170 197 170 257 0 47 48 227 60
227 3 0 11 -30 18 -67 18 -104 31 -143 57 -169 54 -54 117 -24 267 128 64 65
121 118 127 118 21 0 16 -123 -7 -170 -15 -32 -22 -35 -67 -40 l-50 -5 -7 -49
c-6 -44 -14 -55 -72 -110 -43 -40 -66 -69 -66 -84 0 -29 6 -28 35 6 20 24 30
27 75 25 l51 -2 -7 35 c-5 26 -2 40 11 54 21 23 45 26 45 7 0 -7 5 -18 12 -25
19 -19 50 5 48 36 -4 49 -1 53 55 78 62 27 280 74 344 74 45 0 48 -7 27 -48
-22 -42 -62 -75 -84 -70 -24 7 -32 2 -61 -39 -19 -28 -29 -33 -61 -33 -34 0
-42 -4 -55 -30 -19 -38 -20 -89 0 -96 23 -9 19 -19 -27 -63 l-43 -41 46 6 c50
7 70 -6 49 -31 -30 -36 -110 3 -110 53 0 39 -14 56 -41 49 -13 -4 -46 4 -81
19 -69 29 -128 32 -180 10 -20 -9 -62 -19 -92 -22 -31 -4 -60 -12 -65 -18 -6
-7 -11 -45 -13 -86 l-3 -74 -34 -7 c-19 -4 -38 -14 -42 -21 -5 -8 -17 -25 -27
-38 l-19 -24 -17 33 c-21 39 -15 61 17 61 28 0 47 17 47 43 0 19 -5 20 -82 14
l-83 -7 48 44 c26 24 47 47 47 50 0 20 -48 0 -82 -34 -37 -37 -40 -43 -36 -87
l3 -47 -55 -31 c-84 -47 -125 -143 -97 -223 9 -23 8 -23 -38 -16 l-47 7 7 -67
7 -66 -36 -33 c-39 -37 -44 -47 -21 -47 26 0 28 -26 6 -68 -24 -48 -55 -72
-92 -72 -34 0 -53 22 -79 91 -11 31 -34 70 -50 87 -59 62 -131 377 -85 377 5
0 18 -22 27 -50 25 -69 87 -127 131 -123 28 3 32 7 32 33 0 25 -4 31 -26 33
-36 4 -55 27 -109 130 -34 64 -51 87 -65 87 -35 0 -47 -77 -41 -265 8 -242 42
-433 98 -545 28 -55 45 -73 79 -80 46 -10 38 -43 -33 -130 -87 -106 -104 -134
-122 -196 -45 -157 -58 -307 -30 -361 18 -35 34 -35 130 6 52 22 241 63 249
54 1 -2 -38 -86 -86 -188 -156 -327 -201 -468 -201 -635 0 -87 4 -113 33 -200
l34 -100 0 -515 c1 -533 4 -599 46 -820 19 -99 41 -157 89 -240 17 -30 20 -52
20 -160 0 -69 -7 -210 -15 -315 -8 -104 -15 -237 -15 -295 0 -108 1 -114 89
-524 23 -104 45 -226 50 -271 15 -127 85 -265 135 -265 23 0 64 -35 53 -46 -3
-3 -14 -1 -25 5 -28 15 -32 14 -32 -7 0 -29 143 -310 207 -407 206 -312 575
-674 980 -963 144 -103 298 -195 473 -283 176 -88 330 -186 442 -283 83 -71
129 -130 152 -195 19 -55 101 -192 263 -439 73 -112 133 -209 133 -216 0 -18
-73 -213 -98 -262 -31 -61 -69 -102 -116 -126 -22 -11 -84 -51 -136 -88 -113
-80 -160 -105 -237 -125 -74 -19 -126 -19 -210 2 -83 20 -298 23 -361 4 -54
-15 -112 -65 -112 -96 0 -33 15 -39 90 -37 72 3 116 -16 93 -39 -9 -9 -78 -12
-272 -10 -340 2 -435 -16 -481 -92 -25 -40 -25 -62 -1 -86 27 -27 69 -14 133
40 27 23 52 39 55 36 3 -3 0 -20 -6 -37 -15 -44 6 -92 48 -109 26 -11 55 -10
198 12 93 15 197 29 233 32 l65 7 -60 -37 c-87 -54 -154 -104 -165 -124 -14
-27 -1 -60 26 -67 17 -4 46 6 98 35 40 22 76 37 80 34 3 -4 6 -21 6 -38 0 -53
18 -59 102 -37 40 11 111 28 158 37 95 19 140 38 140 60 0 16 -2 16 -95 19
-45 1 -60 5 -60 16 0 18 35 28 106 29 73 1 114 16 127 46 13 29 48 33 56 7 3
-9 2 -32 -3 -50 -8 -25 -6 -35 6 -48 14 -13 42 -14 217 -9 204 7 313 -1 343
-27 13 -11 12 -14 -6 -29 -50 -41 2 -39 78 2 107 56 528 401 606 495 58 70
100 140 125 209 30 84 45 103 70 87 10 -6 21 -8 24 -3 3 4 8 52 12 105 l7 97
67 -139 c37 -77 73 -143 80 -147 8 -5 11 -2 7 11 -3 11 -11 44 -17 74 -7 30
-26 84 -41 119 -16 35 -27 66 -24 69 3 3 7 3 9 1 23 -28 141 -196 255 -366
l142 -212 54 -15 c29 -9 56 -16 59 -16 4 0 -20 26 -52 58 -32 31 -79 87 -105
123 -47 66 -177 275 -177 284 0 3 35 -32 78 -76 84 -89 188 -176 269 -227 70
-45 123 -104 168 -190 47 -90 95 -137 186 -182 79 -38 104 -64 79 -80 -18 -11
-33 -8 -174 36 -160 50 -237 44 -118 -9 138 -62 331 -120 472 -143 64 -10 130
-30 203 -61 59 -25 107 -47 105 -49 -10 -10 -324 42 -516 85 -184 42 -290 57
-303 44 -7 -7 13 -19 63 -39 56 -22 74 -34 76 -50 3 -24 35 -34 106 -34 24 0
128 -12 232 -26 119 -16 253 -27 364 -30 118 -3 192 -9 229 -20 57 -16 101
-40 101 -55 0 -14 -47 -11 -87 6 -52 22 -125 19 -157 -6 -35 -27 -35 -66 -1
-75 24 -6 127 1 185 12 60 12 -11 -15 -94 -36 -75 -19 -120 -22 -280 -24 -181
-1 -191 -2 -195 -21 -2 -11 -11 -26 -20 -33 -13 -11 13 -12 164 -8 247 7 431
38 535 89 25 12 45 29 45 37 0 8 7 19 15 24 19 12 370 21 370 10 -1 -15 -173
-141 -241 -176 l-64 -33 -585 -6 c-322 -4 -602 -10 -623 -14 -66 -13 -16 -44
118 -71 l60 -12 -90 -1 c-53 -1 -116 5 -150 14 -129 33 -275 122 -275 167 0
23 5 23 220 -6 64 -8 169 -17 235 -20 l120 -6 -130 25 c-257 50 -549 146 -630
208 -10 8 -19 27 -20 43 0 23 -6 29 -42 41 -49 17 -155 111 -234 208 -29 36
-56 65 -60 65 -24 0 40 -141 105 -233 l41 -59 -2 -90 c-3 -110 4 -125 103
-229 41 -43 74 -82 74 -88 0 -6 -9 -15 -20 -21 -11 -6 -20 -15 -20 -21 0 -16
132 -73 300 -127 85 -28 182 -60 215 -72 l60 -20 -115 5 c-147 6 -252 32 -393
96 -203 93 -248 110 -270 107 -21 -3 -21 -4 8 -32 17 -15 63 -51 103 -78 65
-46 86 -68 64 -68 -15 0 -133 79 -267 180 -151 113 -274 194 -282 186 -16 -16
85 -114 268 -259 137 -108 179 -164 152 -206 -17 -26 -63 -17 -184 38 -157 71
-276 153 -314 216 -16 27 -47 66 -69 87 -37 36 -38 38 -31 87 7 54 -1 63 -28
33 -38 -41 -12 -131 76 -266 75 -115 87 -139 87 -179 0 -41 -15 -56 -63 -64
-52 -8 -115 27 -201 111 -80 77 -150 178 -166 236 -14 50 7 117 66 208 55 86
57 120 5 76 -19 -15 -50 -53 -69 -84 -45 -71 -71 -100 -93 -100 -17 0 -25 15
-56 114 -20 66 -39 81 -49 41 -17 -68 56 -244 145 -350 70 -83 105 -134 98
-142 -13 -13 -88 31 -131 76 -47 52 -233 325 -278 410 -16 30 -28 69 -28 90 0
48 52 139 85 147 39 10 50 30 24 44 -34 19 -246 24 -424 11 -264 -19 -325 -35
-374 -97 -34 -43 -19 -54 71 -54 78 0 79 0 89 -29 6 -16 18 -33 27 -36 9 -4
100 -11 202 -14 117 -5 194 -12 208 -20 13 -7 30 -28 38 -47 15 -35 22 -140
10 -151 -4 -4 -31 19 -61 52 -66 71 -80 66 -80 -28 0 -55 -2 -62 -20 -62 -15
0 -20 7 -20 27 -1 31 -28 72 -68 102 -34 25 -50 12 -45 -39 2 -31 9 -42 33
-55 17 -9 30 -23 30 -31 0 -25 -45 -36 -168 -44 -275 -15 -317 -28 -317 -95 0
-35 -4 -41 -32 -54 -43 -18 -118 -73 -118 -87 0 -18 180 21 243 53 28 14 49
18 76 13 28 -5 41 -2 50 9 18 21 92 42 231 66 217 37 441 52 454 31 17 -27
-89 -104 -159 -116 -104 -18 -206 -144 -180 -224 8 -25 26 -26 120 -6 39 8 99
15 135 15 36 0 107 9 159 20 107 23 152 25 168 9 11 -11 115 -32 403 -84 47
-9 127 -18 179 -22 83 -5 95 -4 107 12 18 25 70 18 359 -48 353 -81 418 -90
554 -82 134 9 165 16 169 38 4 19 -33 38 -119 62 -64 18 -103 50 -79 65 23 15
98 12 258 -11 238 -34 368 -18 380 45 5 24 -30 59 -79 82 -59 26 -34 34 149
45 202 12 277 24 316 53 54 39 213 93 243 82 20 -8 59 20 84 61 l21 34 -28 30
c-32 33 -30 37 44 67 104 42 301 201 290 234 -7 20 -54 28 -248 43 -215 17
-267 27 -335 65 -27 16 -72 32 -99 35 -59 9 -55 12 86 61 231 81 306 141 215
174 -18 6 -152 15 -307 20 -151 5 -286 12 -300 15 -125 30 -134 39 -75 75 19
12 40 30 45 40 13 25 41 28 375 39 293 10 369 22 464 70 50 26 119 87 136 121
27 52 -13 48 -80 -8 -26 -22 -30 -23 -33 -8 -6 27 13 42 103 85 117 56 132 93
71 181 -19 27 -38 71 -44 97 -12 53 -22 133 -17 133 2 0 20 -29 41 -65 21 -36
42 -65 46 -65 16 0 7 39 -37 166 -24 71 -49 163 -55 204 -12 83 -39 150 -94
229 -45 67 -48 101 -7 101 16 0 60 -12 97 -27 59 -23 84 -27 179 -27 l110 -1
88 44 87 44 83 -7 c89 -7 129 4 135 38 3 15 1 16 -16 7 -53 -29 -57 5 -5 48
20 16 88 58 152 92 162 86 295 165 311 183 11 14 -6 16 -173 16 -182 0 -247 5
-247 20 0 16 53 22 300 32 312 12 325 15 375 98 36 60 86 110 109 110 31 0
106 121 106 171 0 37 -18 46 -30 15 -5 -15 -21 -29 -37 -33 -44 -13 -226 -10
-230 3 -5 16 83 72 131 84 90 22 91 23 94 65 2 22 8 43 14 46 6 4 33 0 62 -7
103 -28 191 20 241 132 30 68 71 112 144 154 33 19 61 37 61 40 0 3 -20 5 -44
5 -78 0 -113 61 -62 109 14 12 69 39 123 60 128 50 191 86 258 148 56 51 85
93 85 123 0 28 -21 16 -91 -52 -38 -36 -69 -63 -69 -59 0 3 11 33 25 66 14 33
25 62 25 65 0 14 -47 1 -121 -35 -46 -22 -93 -40 -106 -40 -21 0 -22 2 -13 21
18 33 4 34 -41 0 -24 -17 -44 -29 -46 -27 -7 7 15 52 36 70 11 10 71 32 133
47 202 52 293 110 348 223 33 67 53 166 48 242 l-3 49 -46 -2 c-26 0 -68 -11
-94 -22 -27 -12 -50 -19 -52 -17 -3 2 0 21 6 41 20 72 -21 96 -89 53 -34 -22
-35 -22 -10 -26 45 -7 44 -20 -5 -65 -34 -31 -47 -48 -42 -60 9 -23 38 -21
138 8 46 13 95 25 109 24 l25 0 -25 -21 c-14 -12 -81 -48 -150 -80 -130 -62
-210 -108 -210 -120 0 -15 41 -8 100 17 121 51 134 22 19 -40 -77 -42 -190
-127 -247 -187 -25 -27 -37 -51 -47 -102 -8 -37 -12 -73 -9 -81 3 -7 22 -20
42 -28 39 -16 92 -59 92 -75 0 -5 -7 -15 -15 -22 -13 -11 -21 -7 -49 23 -25
28 -42 37 -65 37 -35 0 -42 -15 -11 -25 24 -8 41 -37 32 -52 -12 -19 -64 -34
-94 -28 -24 6 -28 12 -28 40 0 18 -7 39 -16 46 -14 11 -18 10 -30 -6 -8 -10
-14 -28 -14 -38 0 -11 -37 -56 -85 -104 -114 -113 -113 -125 5 -73 81 35 140
40 140 11 0 -10 -26 -43 -57 -72 l-58 -52 35 6 c43 8 64 -4 56 -31 -10 -31
-205 -102 -280 -102 -38 0 -96 -55 -96 -91 0 -32 1 -32 -120 -49 -82 -12 -120
-31 -120 -59 0 -11 -12 -24 -30 -31 -38 -16 -217 -17 -232 -2 -7 7 -4 21 12
47 12 20 20 39 17 42 -12 11 -56 -8 -98 -43 -24 -20 -54 -40 -67 -45 -40 -15
-159 -10 -264 11 -111 23 -158 43 -158 66 0 12 18 14 114 12 112 -3 145 4 116
23 -40 25 -104 34 -240 34 -122 0 -145 2 -145 15 0 12 11 14 47 13 l47 -3 -6
31 c-5 25 -2 31 16 36 14 3 21 13 21 28 0 32 15 41 105 66 124 33 118 27 110
122 -10 130 18 173 66 100 18 -29 36 -42 74 -55 l50 -16 1 -69 c0 -37 1 -72 3
-78 4 -20 41 38 41 65 0 35 34 68 54 51 8 -7 17 -23 20 -36 4 -14 11 -25 16
-25 17 0 11 40 -12 81 -27 49 -19 60 75 90 56 19 91 24 160 22 85 -1 88 0 85
20 -2 14 -14 25 -33 30 -56 17 -60 22 -57 66 2 29 0 41 -9 39 -23 -5 -33 58
-20 118 28 126 167 230 215 162 17 -24 22 -103 8 -112 -5 -3 -18 16 -31 41
-12 25 -23 44 -25 42 -2 -2 0 -33 4 -69 4 -36 5 -71 2 -77 -5 -15 -38 -17 -47
-3 -3 5 -16 15 -28 21 -18 9 -16 5 8 -20 37 -39 115 -93 129 -88 6 2 15 23 21
46 9 36 16 45 45 55 64 22 184 107 261 186 86 86 99 112 74 140 -12 14 -14 23
-7 37 17 30 55 61 98 78 37 14 45 24 72 83 53 121 54 120 -33 137 -85 17 -67
64 45 120 83 41 125 111 81 135 -38 20 -57 12 -67 -27 -10 -43 -37 -55 -54
-23 -16 30 -34 200 -22 212 6 6 22 -6 41 -31 33 -42 61 -53 61 -26 0 25 42 34
213 45 189 12 240 17 285 32 57 18 21 30 -110 39 -125 8 -209 26 -215 45 -6
19 35 24 202 24 88 0 197 5 243 12 45 6 85 8 88 5 3 -3 -13 -23 -35 -45 -39
-37 -41 -42 -35 -79 l6 -39 -79 -13 c-90 -15 -172 -44 -205 -71 l-23 -19 62 6
c89 8 94 -10 20 -85 -55 -56 -87 -112 -87 -152 0 -11 4 -20 8 -20 5 0 40 27
78 60 50 44 75 59 90 56 13 -4 49 11 99 39 83 48 99 54 103 43 12 -41 -26 -82
-124 -132 -43 -23 -80 -46 -82 -53 -6 -19 46 -46 93 -47 33 -1 50 5 70 24 64
59 116 211 116 337 -1 106 11 167 50 256 31 70 50 157 34 157 -5 0 -31 -22
-60 -49 -52 -50 -116 -78 -149 -65 -23 9 -20 24 14 77 27 44 60 66 46 32 -3
-8 -9 -22 -12 -30 -3 -8 -2 -15 4 -15 21 0 35 33 36 83 1 49 3 52 29 55 37 4
88 59 110 118 25 65 34 193 15 217 -12 16 -15 16 -48 -7 -67 -45 -160 -66
-160 -35 0 13 41 36 79 43 39 7 93 45 117 81 15 23 14 26 -6 52 -15 19 -19 35
-15 53 9 35 25 51 45 45 17 -5 49 23 67 60 22 44 35 127 43 275 12 222 23 245
130 271 33 8 58 24 95 62 104 108 166 296 181 552 7 121 11 125 35 32 16 -63
65 -117 106 -117 41 0 63 27 127 155 57 114 78 140 158 194 51 34 78 74 78
114 0 13 11 39 25 58 43 60 47 78 41 184 -11 195 -55 385 -181 785 -47 151
-93 304 -101 340 -20 85 -96 264 -143 337 -21 32 -59 77 -86 101 -56 49 -220
135 -244 127 -10 -3 -38 13 -71 41 -123 103 -227 153 -406 198 -294 74 -699
86 -989 31 -165 -32 -370 -117 -424 -176 -24 -26 -37 -31 -113 -39 -164 -19
-371 -107 -632 -270 -78 -48 -194 -117 -258 -154 -123 -71 -150 -92 -101 -80
85 21 178 67 375 186 299 181 516 260 843 308 77 11 146 20 153 20 6 0 12 4
12 9 0 4 -41 14 -90 21 -50 7 -87 16 -83 20 11 11 220 77 317 101 297 72 667
65 992 -20 186 -49 214 -65 429 -255 43 -38 64 -49 94 -51 107 -6 288 -228
336 -412 8 -32 18 -66 21 -77 8 -23 -152 123 -208 191 -23 27 -38 56 -38 72 0
52 -89 209 -111 196 -12 -8 13 -67 57 -132 19 -29 33 -53 31 -53 -2 0 -74 34
-159 75 -374 180 -603 241 -753 200 -36 -9 -65 -21 -65 -25 0 -10 128 -30 146
-23 9 3 12 13 9 24 -4 11 -2 19 4 19 6 0 75 -23 153 -51 79 -28 188 -66 243
-86 216 -76 324 -142 456 -280 124 -130 169 -238 189 -453 10 -113 1 -381 -16
-423 -12 -33 -39 -12 -85 68 -81 138 -180 274 -271 370 -106 112 -138 127
-248 123 l-75 -3 45 -12 c128 -36 235 -130 388 -342 102 -141 136 -211 158
-326 21 -112 26 -387 7 -406 -22 -22 -31 0 -53 124 -33 192 -95 336 -207 484
-54 72 -84 99 -158 143 l-40 24 46 -54 c81 -96 156 -230 128 -230 -5 0 -28 17
-52 38 -94 85 -137 104 -137 61 0 -11 31 -91 70 -177 38 -86 71 -168 72 -182
3 -21 -1 -25 -22 -23 -59 6 -110 114 -155 324 -39 183 -77 296 -159 463 -80
162 -138 258 -181 298 -71 67 -505 299 -505 271 0 -3 12 -14 26 -25 14 -12 22
-24 17 -29 -5 -5 -124 -14 -264 -19 -398 -16 -828 -51 -994 -82 -33 -6 -76
-19 -95 -30 -35 -19 -35 -19 -5 -13 108 23 138 26 686 55 103 5 228 17 278 25
58 10 162 17 276 18 179 2 185 1 200 -20 8 -11 47 -34 86 -49 127 -50 306
-188 393 -305 48 -63 58 -106 32 -128 -21 -18 -47 -1 -102 66 -25 32 -76 82
-113 111 -104 84 -282 184 -299 168 -11 -11 16 -31 93 -67 99 -47 112 -60 99
-96 -16 -45 -76 -68 -174 -67 l-85 1 45 -20 c25 -11 79 -24 120 -29 214 -28
354 -84 453 -184 54 -54 117 -156 117 -188 0 -20 -31 -21 -93 -2 -26 8 -47 12
-47 9 0 -3 25 -40 56 -84 30 -43 68 -107 83 -141 28 -62 71 -189 71 -211 0
-14 -84 67 -121 117 -16 21 -29 50 -29 63 0 47 -48 123 -160 253 -79 91 -114
139 -107 147 8 8 117 -64 117 -77 0 -13 60 -43 68 -35 12 12 -101 105 -167
138 l-64 31 -18 -23 c-11 -13 -19 -31 -19 -40 0 -33 59 -106 160 -199 104 -97
157 -158 147 -169 -4 -3 -48 22 -99 55 -115 76 -334 181 -451 217 -150 47
-116 15 80 -74 325 -148 544 -338 659 -573 16 -32 31 -58 35 -58 8 0 19 37 19
66 0 12 9 32 20 45 17 21 21 22 30 9 5 -8 10 -28 10 -45 0 -16 21 -129 47
-250 42 -202 46 -232 47 -367 1 -140 0 -149 -21 -170 -21 -21 -24 -21 -39 -6
-11 10 -19 45 -24 97 -9 87 -14 101 -35 101 -16 0 -21 14 -35 101 -12 79 -27
125 -52 161 -27 38 -22 42 15 14 65 -50 87 -26 41 44 -14 21 -44 83 -65 136
-70 175 -128 241 -294 339 -177 104 -445 228 -461 213 -2 -3 62 -40 144 -82
165 -85 214 -121 237 -170 22 -46 110 -151 230 -275 55 -57 90 -98 77 -92 -12
7 -73 42 -135 78 -127 74 -281 153 -298 153 -26 0 30 -44 160 -127 154 -98
203 -140 231 -198 19 -40 93 -306 86 -312 -2 -2 -29 39 -60 92 -101 169 -238
333 -270 322 -5 -2 -10 -19 -10 -38 -1 -32 -3 -34 -36 -37 -26 -2 -43 4 -65
24 -21 18 -24 24 -10 19 58 -21 62 -20 36 8 -14 16 -33 25 -50 25 -33 -1 -99
32 -264 134 -175 108 -281 160 -336 166 -54 5 -47 -9 14 -28 141 -44 383 -207
546 -369 131 -130 175 -207 135 -240 -19 -16 -38 -7 -201 92 -162 98 -244 141
-253 132 -4 -3 -2 -9 4 -13 5 -4 34 -23 64 -43 30 -20 77 -56 104 -80 54 -47
176 -187 176 -200 0 -5 -21 5 -47 21 -35 22 -59 30 -93 30 -63 0 -135 45 -297
185 -207 179 -295 242 -365 259 -56 13 -23 -26 72 -85 144 -89 495 -433 549
-536 14 -28 -3 -31 -37 -7 -35 24 -26 -2 14 -42 31 -30 42 -35 68 -31 29 5 31
3 32 -29 0 -26 22 -66 89 -164 49 -71 85 -133 81 -137 -12 -12 -114 48 -177
105 -32 29 -90 95 -128 145 -122 162 -311 342 -466 442 -102 67 -162 97 -183
93 -19 -4 29 -44 179 -148 179 -124 388 -347 475 -507 43 -77 84 -191 84 -231
0 -74 -139 38 -247 199 -135 201 -245 309 -309 307 -25 -1 -42 6 -64 27 -17
16 -30 24 -30 18 0 -31 165 -333 265 -484 158 -239 143 -222 175 -217 27 4 28
3 27 -42 -1 -31 11 -75 37 -139 21 -51 43 -123 48 -160 13 -77 13 -78 32 -62
8 7 19 10 24 7 25 -15 72 -223 72 -319 0 -78 0 -78 92 -80 52 -2 63 -5 66 -20
6 -28 -26 -56 -84 -73 -51 -15 -98 -11 -110 8 -4 6 -15 58 -25 117 -21 127
-79 322 -120 409 -24 50 -63 97 -187 224 -207 212 -400 388 -434 395 -16 3
-58 31 -95 62 -104 86 -138 111 -157 111 -23 0 -13 -17 70 -121 109 -137 120
-159 174 -339 12 -41 42 -113 66 -160 41 -82 48 -100 45 -128 -1 -15 -33 -1
-68 31 -13 11 -26 17 -30 14 -8 -9 31 -142 62 -213 13 -30 20 -54 15 -54 -6 0
-53 66 -105 146 -58 88 -123 174 -166 217 -83 83 -105 77 -40 -12 101 -139
179 -264 256 -414 129 -250 186 -396 204 -522 5 -38 15 -103 22 -143 12 -63
11 -89 -5 -197 -27 -188 -31 -196 -45 -90 -39 277 -158 685 -272 930 -70 152
-97 157 -50 11 46 -144 40 -159 -35 -78 -35 38 -45 44 -53 32 -13 -19 -5 -55
40 -183 22 -60 39 -111 39 -114 0 -19 -39 34 -90 121 -62 107 -122 176 -135
156 -12 -19 3 -57 55 -135 150 -231 264 -531 241 -636 l-8 -34 -13 30 c-6 17
-36 97 -66 178 -70 193 -105 264 -160 329 -25 29 -66 87 -91 128 -59 99 -109
150 -145 150 -25 0 -28 -4 -28 -32 0 -29 66 -298 104 -422 8 -27 11 -45 6 -40
-23 24 -90 166 -104 220 -18 73 -105 224 -129 224 -3 0 9 -54 27 -120 23 -87
28 -122 20 -130 -8 -8 -33 -6 -93 8 -44 11 -81 18 -81 16 0 -2 19 -34 42 -71
103 -168 168 -348 168 -462 l0 -56 -113 225 c-116 234 -243 446 -356 596 -63
84 -91 109 -91 84 0 -7 69 -119 154 -249 217 -334 281 -451 248 -451 -17 0
-56 58 -102 150 -76 152 -199 319 -318 433 -83 78 -102 76 -61 -6 12 -23 41
-70 65 -104 46 -64 96 -155 93 -170 -4 -22 4 -33 37 -54 80 -49 222 -327 274
-535 33 -132 13 -107 -51 63 -76 201 -129 282 -271 418 -107 103 -333 289
-372 306 -32 15 -36 12 -29 -23 8 -40 92 -120 237 -224 139 -99 176 -128 176
-138 0 -4 -18 5 -40 19 -24 15 -41 21 -45 14 -4 -5 8 -40 25 -77 52 -108 150
-413 150 -464 0 -6 -14 -8 -35 -4 -44 9 -44 -1 0 -56 64 -78 68 -97 62 -248
-8 -182 -54 -668 -72 -754 -17 -79 -25 -92 -67 -101 -59 -13 -63 0 -66 238 -4
219 3 346 18 331 5 -5 13 -77 18 -161 6 -83 15 -159 20 -170 10 -16 12 -15 22
11 34 91 31 434 -6 609 -33 161 -109 362 -182 484 -48 82 -74 107 -112 109
-54 3 -126 73 -150 147 -19 58 -257 337 -287 337 -29 0 -6 -70 61 -179 76
-125 125 -223 156 -308 24 -67 35 -81 26 -35 -3 15 -8 47 -11 72 l-6 45 25
-45 c54 -97 88 -247 106 -474 5 -71 9 -131 7 -132 -5 -5 -349 803 -422 991
-37 94 -71 175 -77 180 -20 20 0 -129 41 -294 45 -179 61 -291 43 -291 -16 0
-34 40 -66 137 -62 195 -236 553 -268 553 -25 0 17 -295 62 -424 11 -33 18
-62 15 -64 -3 -3 -21 7 -42 21 -39 28 -59 27 -44 -1 5 -9 33 -48 61 -87 66
-88 106 -172 125 -261 18 -87 19 -284 1 -385 -28 -154 -56 -152 -81 6 -42 265
-60 333 -214 809 -60 185 -119 388 -145 499 -3 15 -3 27 2 27 4 0 36 -38 71
-85 34 -47 65 -85 67 -85 16 0 -91 188 -138 243 l-27 32 -1 -43 c0 -24 -7 -69
-16 -100 -20 -67 -14 -128 19 -203 13 -30 33 -90 45 -134 22 -81 43 -255 32
-255 -13 0 -101 310 -145 509 -28 128 -100 289 -159 357 -72 83 -54 4 36 -158
34 -61 58 -114 54 -123 -3 -8 -17 -15 -31 -15 -19 0 -25 5 -25 21 0 30 -43 88
-171 229 -139 154 -188 216 -206 258 -14 33 -43 44 -43 15 0 -9 14 -40 30 -70
35 -62 38 -89 10 -96 -20 -5 -20 -7 -5 -44 37 -85 37 -83 10 -95 -14 -6 -25
-20 -26 -32 -2 -50 2 -110 18 -241 14 -114 21 -142 38 -158 48 -43 53 -49 58
-67 3 -11 -1 -27 -8 -37 -44 -59 -147 116 -170 288 -4 36 -18 61 -56 109 -87
108 -159 281 -183 438 l-6 43 72 -63 c192 -167 202 -154 26 34 -125 134 -222
243 -276 313 l-24 30 23 -40 c12 -22 44 -78 71 -125 26 -47 48 -95 48 -107 0
-28 -27 -43 -75 -43 -49 0 -81 34 -139 153 -48 98 -62 151 -51 187 7 21 11 22
62 16 l54 -6 -31 44 c-18 24 -29 49 -26 55 4 6 25 11 47 11 34 0 39 3 39 23 0
26 -132 299 -184 381 -20 31 -43 56 -51 56 -8 0 -15 -2 -15 -5 0 -10 92 -211
120 -264 17 -30 29 -56 27 -57 -4 -5 -183 160 -211 196 -27 33 -28 39 -22 110
7 87 -4 137 -40 175 -18 20 -31 25 -48 21 -26 -6 -44 9 -70 62 -10 18 -23 31
-29 29 -23 -7 -25 -84 -5 -261 10 -98 17 -185 14 -193 -16 -40 -57 45 -171
347 -105 280 -107 281 -64 19 10 -64 19 -136 19 -160 -1 -40 -2 -42 -15 -25
-30 40 -142 383 -152 469 -6 50 0 57 39 36 19 -10 20 -9 14 17 -20 77 -166
354 -188 354 -14 0 -3 -40 36 -130 40 -90 53 -147 61 -260 7 -95 31 -208 75
-350 45 -147 72 -295 74 -402 2 -155 -30 -156 -104 -1 -38 79 -128 193 -153
193 -18 0 1 -160 33 -285 39 -152 113 -373 148 -445 15 -30 37 -60 49 -66 72
-35 143 -174 102 -200 -16 -9 -86 62 -200 203 -156 194 -160 207 -189 578 -27
351 -41 475 -53 475 -10 0 -8 -117 9 -535 7 -166 0 -177 -35 -55 -12 41 -32
88 -44 105 -18 25 -23 55 -34 200 -15 192 -34 296 -69 374 -21 47 -27 53 -49
48 -21 -3 -29 1 -41 24 -8 16 -22 29 -31 29 -22 0 -13 -36 36 -152 46 -107 77
-228 86 -338 11 -128 35 -239 75 -344 49 -130 56 -158 75 -291 20 -144 56
-271 121 -425 29 -68 51 -126 49 -128 -10 -10 -49 26 -90 82 -105 147 -195
376 -195 492 0 91 9 105 50 80 68 -39 49 25 -25 88 -48 42 -57 56 -74 114 -11
37 -29 145 -41 241 -20 171 -30 219 -30 150 0 -48 -14 -67 -34 -49 -9 7 -20
10 -24 6 -4 -4 -9 -185 -12 -402 -3 -251 -9 -395 -15 -396 -18 -3 -62 103
-120 286 -30 98 -54 180 -52 183 3 2 22 -8 43 -22 55 -37 77 -31 86 25 10 68
9 508 -2 646 -12 154 -20 204 -33 204 -7 0 -8 -95 -3 -292 3 -169 2 -299 -3
-307 -14 -22 -34 17 -101 204 -83 228 -81 225 -97 145 -9 -47 -20 -71 -37 -85
-26 -21 -44 -80 -47 -150 -1 -39 -2 -38 -22 28 -11 37 -24 67 -28 67 -4 0 -11
-39 -15 -87 l-7 -88 -37 110 c-21 61 -51 137 -68 170 -16 33 -51 132 -77 220
-57 196 -86 287 -90 283 -2 -2 3 -68 11 -148 20 -202 19 -841 -2 -1080 -5 -57
-8 -62 -19 -46 -34 46 -52 199 -65 553 0 6 -8 19 -17 29 -15 14 -19 40 -21
140 -4 136 7 180 36 150 14 -13 14 -22 5 -58 -13 -47 -11 -53 12 -44 28 10 46
72 43 144 -3 61 -5 68 -29 79 -32 16 -57 71 -94 208 -15 55 -30 104 -35 109
-4 4 -11 -42 -15 -103 -10 -154 -18 -150 -56 29 -34 160 -59 332 -59 400 0 36
7 105 16 154 20 115 15 135 -18 71 -36 -71 -63 -159 -97 -313 -16 -74 -32
-136 -34 -138 -2 -2 -12 42 -22 98 -14 75 -18 146 -17 263 1 157 -7 208 -28
175 -5 -8 -12 -50 -16 -92 -4 -45 -19 -113 -36 -161 -50 -138 -87 -294 -100
-413 -6 -63 -16 -114 -20 -114 -39 0 -78 293 -78 587 0 185 9 264 51 451 17
74 28 136 26 139 -3 2 -13 -7 -22 -21 -21 -32 -35 -33 -35 -3 0 33 -11 67 -21
67 -15 0 -48 -61 -63 -115 -17 -63 -30 -152 -56 -390 -33 -299 -57 -379 -97
-319 -15 24 -18 48 -17 164 2 200 49 472 130 753 43 151 43 161 4 152 -25 -5
-30 -3 -30 12 0 35 40 83 94 113 64 37 71 44 88 96 11 32 17 38 36 36 23 -3
25 -2 42 67 9 33 26 58 72 101 60 58 61 59 56 104 -3 25 -13 57 -22 72 -17 24
-19 25 -41 10 -36 -23 -55 -20 -105 20 -60 48 -103 65 -167 65 -56 1 -114 -26
-133 -61 -15 -28 -13 -30 23 -30 42 0 60 -16 46 -42 -6 -10 -41 -52 -78 -93
-80 -88 -114 -154 -143 -275 -11 -49 -26 -97 -33 -107 -11 -15 -14 -14 -29 16
-16 30 -16 36 4 115 23 93 31 319 11 339 -21 21 -42 -17 -48 -82 -7 -76 -19
-86 -120 -95 -122 -10 -233 -64 -246 -119 -11 -42 -202 -150 -282 -159 -150
-17 270 274 453 313 68 15 82 24 82 54 0 31 -47 69 -110 90 -31 10 -57 27 -70
46 -12 16 -37 33 -60 40 -52 16 -78 44 -63 67 14 22 46 18 83 -10 19 -13 34
-18 39 -12 5 5 17 56 26 114 9 57 18 106 19 108 2 1 18 -12 36 -30 l33 -32 18
23 c11 13 19 32 19 44 0 34 47 84 102 110 73 34 161 50 258 45 93 -4 110 -16
110 -77 0 -61 11 -69 67 -48 132 51 218 77 254 77 l40 0 -7 -58 c-5 -50 -3
-59 15 -76 24 -22 29 -82 8 -111 -8 -10 -29 -25 -48 -34 -51 -24 -44 -45 16
-51 62 -7 75 -14 146 -85 l57 -57 -35 87 c-39 96 -40 135 -9 242 38 134 -31
183 -295 208 -169 16 -253 34 -348 72 -81 33 -120 33 -191 -1 -30 -14 -80 -31
-110 -37 -114 -22 -135 -31 -172 -72 l-38 -40 1 34 c0 19 5 50 12 69 11 33 15
35 62 40 l50 5 -3 37 c-4 42 19 92 50 109 19 10 25 8 43 -15 23 -29 35 -25 35
11 0 67 50 85 75 27 11 -28 19 -35 37 -32 19 2 22 8 20 34 -5 52 83 136 105
101 5 -7 13 -30 18 -52 16 -60 40 -58 97 6 l47 54 34 -33 c28 -27 41 -32 82
-33 28 -1 61 -4 75 -8 l25 -7 -32 -17 c-18 -10 -33 -22 -33 -27 0 -9 85 -7
183 6 41 5 45 -1 20 -28 -16 -18 -16 -20 4 -40 16 -15 39 -22 92 -27 77 -7 95
-16 68 -35 -9 -7 -17 -16 -17 -20 0 -3 64 -6 143 -6 91 0 186 -7 267 -20 69
-11 128 -16 133 -11 5 5 -28 21 -75 36 -98 33 -143 54 -219 106 -80 54 -96 56
-147 20 -23 -17 -44 -31 -47 -31 -3 0 -5 13 -5 30 0 18 10 41 28 60 22 25 41
33 103 45 203 38 268 96 357 316 46 112 56 157 41 175 -9 11 -57 14 -218 15
-226 0 -345 9 -362 26 -8 8 -5 22 11 53 22 42 29 94 16 108 -15 15 -114 3
-216 -26 -155 -45 -176 -47 -185 -25 -4 10 -10 84 -14 165 l-6 146 -61 -48z
m403 -496 c14 -14 23 -27 20 -30 -5 -6 -108 34 -121 47 -6 5 6 9 32 9 33 0 49
-6 69 -26z m387 -3 c60 -6 72 -11 97 -39 50 -55 32 -142 -28 -142 -35 0 -60
-16 -67 -43 -5 -20 -16 -25 -80 -36 -42 -8 -112 -12 -159 -9 -72 4 -95 10
-162 42 -42 21 -97 41 -121 44 -24 2 -44 8 -44 12 0 4 29 16 65 26 36 10 65
22 65 26 0 5 -27 8 -59 8 -69 0 -83 12 -44 37 20 14 44 17 97 16 68 -2 71 -1
102 32 l32 35 118 -1 c66 0 150 -3 188 -8z m-954 -236 c14 -17 10 -47 -7 -52
-15 -5 -47 42 -38 57 9 14 31 12 45 -5z m-553 -252 c-6 -67 -34 -173 -46 -173
-7 0 -31 140 -31 182 0 29 32 58 64 58 17 0 18 -6 13 -67z m835 -258 c1 -11
-70 -61 -99 -70 -16 -4 -23 -2 -23 8 0 19 28 43 70 61 37 16 51 16 52 1z m-18
-440 c50 -50 45 -228 -7 -307 -29 -42 -87 -82 -100 -69 -10 10 -4 19 66 105
24 29 46 94 40 117 -12 44 -73 18 -73 -32 0 -43 -136 -159 -187 -159 -17 0
-23 6 -23 23 0 28 11 45 115 172 44 55 91 115 104 133 25 35 42 40 65 17z
m-1089 -76 c-15 -23 -28 -56 -29 -73 -1 -27 3 -31 26 -34 14 -2 59 11 100 28
109 47 156 60 226 60 50 0 66 -4 84 -22 20 -20 20 -22 3 -35 -11 -7 -26 -13
-36 -13 -27 0 -142 -46 -324 -130 -185 -86 -225 -100 -225 -79 0 7 19 45 42
83 29 49 42 83 43 112 1 25 11 55 24 72 22 32 82 84 89 77 2 -2 -9 -22 -23
-46z m497 -219 c43 -33 62 -164 37 -253 -8 -31 -14 -38 -30 -34 -45 12 -99
-77 -85 -143 6 -35 -10 -50 -45 -43 -33 6 -44 -10 -52 -84 -3 -29 -15 -74 -27
-99 -29 -67 -27 -81 15 -88 20 -4 33 -11 30 -17 -11 -17 -52 -9 -110 22 -43
23 -60 28 -69 19 -8 -8 -7 -14 5 -21 21 -11 14 -47 -29 -144 -40 -92 -56 -180
-49 -263 11 -108 58 -150 108 -95 14 15 56 78 93 140 89 150 169 252 198 253
4 0 14 -16 22 -35 8 -19 22 -35 30 -35 28 0 179 238 259 408 26 55 32 77 30
127 -2 47 3 69 20 99 12 22 27 41 33 43 18 6 39 -93 37 -177 -2 -149 -59 -299
-127 -335 -49 -26 -56 -41 -62 -128 -8 -103 -9 -105 -43 -73 -29 28 -29 28
-33 6 -1 -13 -10 -26 -18 -30 -8 -4 -28 -14 -43 -21 -17 -8 -48 -44 -77 -89
-61 -95 -89 -130 -102 -130 -18 0 0 59 47 160 49 104 53 125 30 134 -26 10
-41 -4 -64 -57 -12 -29 -55 -99 -97 -157 -80 -111 -114 -169 -114 -195 0 -41
-64 -29 -121 22 -71 65 -84 101 -83 233 2 132 29 241 89 360 48 96 91 143 122
135 21 -5 24 -3 18 14 -14 46 84 221 170 300 24 22 49 41 54 41 23 0 30 38 20
100 -13 70 -26 80 -105 80 -24 0 -44 5 -44 10 0 12 97 60 121 60 9 0 28 -9 41
-20z m-62 -165 c0 -27 -28 -15 -44 19 -9 19 -16 40 -16 48 1 18 60 -48 60 -67z
m257 -171 c5 -14 -23 -44 -40 -44 -7 0 -19 5 -27 10 -13 9 -11 13 9 31 25 21
52 22 58 3z m-9 -110 c2 -16 -8 -29 -40 -51 -37 -25 -43 -34 -46 -68 -2 -22 2
-66 8 -98 6 -31 8 -62 5 -67 -10 -17 -64 18 -71 46 -14 57 15 170 62 242 20
31 77 28 82 -4z m-223 -95 c12 -19 -5 -60 -31 -71 -22 -10 -28 -9 -39 6 -15
20 -10 45 13 64 19 15 48 16 57 1z m-429 -141 c8 -13 -30 -48 -52 -48 -17 0
-18 32 -2 48 15 15 45 15 54 0z m8569 -19 c36 -32 60 -67 52 -75 -8 -8 -117
77 -117 92 0 23 27 16 65 -17z m1190 -171 c125 -261 238 -677 206 -761 -10
-26 -36 -45 -47 -34 -3 2 -9 51 -13 108 -9 111 -33 190 -109 369 -47 111 -77
217 -92 333 -6 45 -13 90 -16 100 -3 9 -2 17 1 17 3 0 35 -60 70 -132z m-8961
47 c7 -29 -2 -75 -15 -75 -5 0 -9 23 -9 50 0 53 14 67 24 25z m-605 -89 c27
-33 34 -106 10 -106 -14 0 -39 57 -39 90 0 32 11 38 29 16z m388 -143 c4 -16
7 -68 8 -118 0 -71 -3 -89 -14 -87 -30 6 -62 -43 -86 -135 -8 -31 -24 -138
-36 -237 -27 -245 -30 -266 -40 -272 -27 -17 8 470 46 633 16 68 56 188 75
224 15 28 38 23 47 -8z m73 -18 c0 -32 -10 -56 -21 -49 -10 6 -12 67 -3 77 12
11 24 -3 24 -28z m69 -190 c-17 -213 -75 -583 -97 -619 -12 -20 -21 32 -21
124 -1 178 55 555 96 650 l16 35 8 -35 c4 -19 4 -89 -2 -155z m258 -132 c-3
-115 -11 -228 -17 -253 -15 -62 -40 -110 -56 -110 -18 0 -18 40 0 127 8 37 24
138 36 223 28 211 30 220 37 220 3 0 3 -93 0 -207z m8802 128 c57 -111 97
-280 85 -359 -11 -73 -35 -66 -77 21 -69 145 -97 300 -64 351 23 35 33 33 56
-13z m-9419 -106 c0 -22 -5 -47 -10 -55 -7 -10 -10 6 -10 55 0 49 3 65 10 55
5 -8 10 -33 10 -55z m180 -136 c0 -53 -4 -89 -10 -89 -6 0 -10 39 -10 96 0 61
4 93 10 89 6 -3 10 -46 10 -96z m914 39 c3 -13 7 -109 8 -213 3 -172 5 -194
23 -220 18 -27 20 -46 20 -175 -1 -152 -20 -271 -55 -339 l-17 -35 -14 25
c-10 17 -15 76 -17 203 -4 181 14 734 24 761 9 22 23 18 28 -7z m-599 -40
c-11 -36 -35 -69 -45 -63 -24 15 6 85 36 85 11 0 14 -6 9 -22z m-640 -15 c-19
-51 -48 -174 -68 -298 l-24 -140 -7 111 c-6 101 -5 134 10 232 3 19 21 50 41
73 37 41 60 51 48 22z m-276 -63 c20 -78 24 -123 10 -118 -18 6 -38 66 -45
136 -5 53 -4 56 11 37 8 -11 19 -35 24 -55z m1370 12 c19 -49 32 -146 29 -207
-3 -54 -5 -60 -26 -63 -13 -2 -27 -13 -32 -25 -5 -12 -16 -100 -25 -195 -18
-180 -28 -239 -38 -212 -10 24 -26 157 -33 270 -10 162 20 320 60 320 20 0 28
28 20 77 -3 23 -4 49 0 58 8 21 32 8 45 -23z m8091 -61 c21 -65 26 -191 10
-241 -6 -19 -8 -13 -9 30 -1 53 -24 228 -37 280 -11 49 15 -3 36 -69z m-9335
-37 c-5 -28 -9 -34 -16 -23 -11 17 -12 83 -2 93 14 13 26 -32 18 -70z m8794
-7 c13 -14 21 -31 19 -38 -4 -12 -98 78 -98 94 0 11 48 -24 79 -56z m-8539
-22 c0 -19 -4 -36 -9 -39 -12 -8 -22 34 -15 62 9 31 24 17 24 -23z m705 -304
c10 -85 15 -178 12 -208 -5 -51 -5 -54 16 -51 22 3 24 7 47 96 8 32 16 42 28
40 23 -5 22 -112 -1 -191 -17 -54 -37 -69 -37 -26 0 30 -15 23 -34 -17 -9 -20
-19 -34 -23 -31 -3 3 -12 32 -20 64 -11 41 -16 131 -18 308 -4 269 2 272 30
16z m8263 122 c29 -101 38 -294 12 -267 -25 26 -54 304 -32 304 5 0 14 -17 20
-37z m392 -57 c0 -52 -4 -97 -10 -101 -14 -9 -40 49 -40 90 0 39 26 105 41
105 5 0 9 -42 9 -94z m-142 -56 c2 -32 1 -76 -3 -97 -6 -35 -8 -36 -20 -19
-19 26 -29 135 -15 170 16 43 33 19 38 -54z m-8803 -147 c19 -116 15 -147 -11
-88 -11 25 -19 73 -21 130 -5 114 9 96 32 -42z m8126 -198 c28 -58 34 -80 34
-137 0 -49 -4 -72 -16 -83 -15 -15 -18 -14 -38 10 -17 23 -22 25 -27 11 -9
-24 4 -66 38 -120 34 -52 31 -81 -8 -81 -22 0 -59 92 -70 173 -6 44 -4 50 15
55 12 3 21 9 21 15 0 21 -43 62 -65 62 -43 0 -62 29 -79 120 -8 47 -18 119
-21 160 l-7 75 94 -95 c70 -70 103 -113 129 -165z m-7958 113 c-3 -21 -9 -35
-14 -32 -11 6 -12 118 -2 128 12 12 23 -54 16 -96z m-508 43 c5 -18 -9 -71
-20 -71 -3 0 -5 20 -5 45 0 46 14 60 25 26z m9215 -11 c0 -23 -26 -39 -51 -33
-23 6 -24 11 -2 35 22 24 53 24 53 -2z m-6003 -51 c7 -15 17 -78 22 -140 5
-63 17 -147 26 -187 19 -82 13 -99 -30 -88 -53 13 -87 116 -100 299 -5 68 -4
97 4 97 6 0 11 -8 11 -18 0 -23 19 -42 42 -42 11 0 18 7 18 18 0 21 -53 76
-63 65 -4 -3 -7 -2 -7 4 0 34 60 28 77 -8z m-2026 -73 c33 -120 31 -176 -14
-385 l-24 -115 -7 75 c-10 104 -15 119 -43 130 -19 7 -24 14 -19 32 3 12 8 59
12 105 4 45 10 85 15 87 4 3 17 -7 29 -22 l23 -28 -8 94 c-6 86 -5 94 9 82 9
-7 21 -32 27 -55z m-1661 -21 c0 -24 -4 -47 -10 -50 -6 -4 -10 15 -10 50 0 35
4 54 10 50 6 -3 10 -26 10 -50z m1985 -52 c24 -81 51 -130 75 -136 29 -7 24
-52 -5 -52 -27 0 -42 -59 -50 -192 -3 -60 -9 -133 -12 -163 l-6 -55 -19 105
c-27 147 -29 550 -3 550 2 0 11 -26 20 -57z m6529 -5 c80 -81 275 -341 321
-429 40 -77 69 -180 80 -284 9 -90 0 -81 -64 64 -65 146 -113 227 -208 348
-111 142 -223 311 -223 339 0 40 28 28 94 -38z m-8150 -14 c18 -46 -3 -169
-25 -147 -13 13 -24 125 -16 147 8 21 33 21 41 0z m986 11 c0 -3 14 -73 32
-157 39 -190 44 -380 12 -487 -10 -35 -24 -66 -30 -68 -24 -8 -37 90 -24 184
20 143 23 230 10 265 -28 78 -34 268 -9 268 5 0 9 -2 9 -5z m980 -59 c0 -19
-4 -37 -9 -40 -11 -7 -23 37 -15 58 11 28 24 17 24 -18z m-1350 -128 c0 -43
-4 -78 -9 -78 -14 0 -41 83 -41 126 0 22 6 46 12 52 23 23 38 -16 38 -100z
m1229 -42 c60 -168 59 -280 -3 -159 -21 41 -76 240 -76 272 l1 26 23 -27 c13
-14 37 -65 55 -112z m6856 -18 c9 -26 15 -60 13 -75 l-3 -28 -22 35 c-24 37
-56 158 -46 173 7 12 36 -41 58 -105z m-1092 39 c69 -68 107 -135 107 -186 0
-26 -4 -32 -17 -29 -32 6 -183 227 -183 267 0 26 35 7 93 -52z m-6883 4 c0
-22 -4 -43 -10 -46 -6 -4 -10 12 -10 39 0 25 5 46 10 46 6 0 10 -18 10 -39z
m1280 -66 c0 -16 -3 -41 -7 -55 -7 -24 -8 -23 -13 10 -7 49 0 106 11 89 5 -8
9 -27 9 -44z m-1908 8 c8 -10 18 -42 21 -71 4 -30 18 -78 32 -109 30 -67 32
-104 4 -129 -17 -16 -22 -16 -29 -4 -6 8 -10 33 -10 55 0 63 -9 85 -35 85 -26
0 -35 17 -35 68 0 20 -4 43 -8 50 -14 21 -28 -45 -62 -271 -30 -207 -43 -258
-61 -240 -30 30 -17 226 18 265 15 16 14 21 -12 57 -15 22 -33 57 -41 78 -14
40 -19 152 -6 139 4 -4 16 -44 28 -88 l21 -81 7 88 c8 112 18 125 96 125 42 0
61 -5 72 -17z m3442 -34 c31 -37 33 -60 6 -84 -29 -26 -47 -12 -65 50 -27 92
-2 107 59 34z m-381 -106 c44 -138 48 -155 38 -171 -6 -10 -15 -7 -39 13 -48
41 -74 90 -75 143 -1 50 19 122 33 122 5 0 24 -48 43 -107z m-2793 -45 c0 -14
-3 -35 -7 -45 -6 -15 -8 -13 -13 12 -8 42 0 91 11 74 5 -8 9 -26 9 -41z m2506
27 c19 -29 10 -65 -16 -65 -19 0 -30 19 -30 54 0 42 22 48 46 11z m502 -1 c72
-36 122 -97 193 -238 73 -143 105 -193 170 -262 77 -83 165 -232 147 -250 -3
-2 -31 24 -64 58 -32 34 -109 103 -171 154 -61 52 -127 113 -146 136 -31 39
-67 99 -67 113 0 3 25 -15 55 -40 49 -40 85 -56 85 -40 0 18 -35 67 -80 110
-83 80 -210 249 -210 280 0 12 40 3 88 -21z m-2573 -14 c9 -14 -4 -70 -16 -70
-5 0 -9 18 -9 40 0 38 12 52 25 30z m1239 -45 c5 -15 -9 -65 -19 -65 -3 0 -5
18 -5 40 0 40 13 53 24 25z m-230 -67 c40 -86 80 -217 74 -244 -7 -27 -62 91
-86 181 -17 66 -20 70 -44 67 -33 -3 -41 10 -27 42 21 46 45 32 83 -46z m6818
47 c6 -31 -1 -75 -13 -75 -5 0 -9 23 -9 50 0 52 14 68 22 25z m-6303 -86 c11
-49 8 -69 -8 -69 -19 0 -54 121 -44 148 10 25 40 -20 52 -79z m1057 -84 c18
-72 -47 -12 -104 97 l-34 63 66 -67 c36 -37 68 -79 72 -93z m4836 108 c53 -57
95 -123 164 -263 69 -140 102 -177 138 -158 11 6 41 29 65 51 49 44 66 37 31
-13 -35 -49 -207 -167 -221 -152 -7 8 -152 348 -198 465 -46 116 -41 134 21
70z m-5326 -8 c7 -19 14 -42 14 -52 -1 -29 -50 33 -50 63 0 35 19 30 36 -11z
m-2598 -28 c4 -31 -36 -62 -66 -53 -27 9 -44 50 -29 69 28 35 90 25 95 -16z
m8061 4 c22 -31 28 -61 11 -61 -11 0 -35 36 -45 68 -9 31 10 28 34 -7z m-6225
-176 c67 -159 101 -268 111 -359 3 -28 8 -66 11 -83 3 -18 1 -33 -4 -33 -19 0
-80 158 -142 368 -51 175 -66 262 -45 262 2 0 33 -70 69 -155z m6536 109 c12
-32 4 -67 -21 -90 -26 -24 -42 -7 -42 45 0 66 44 97 63 45z m-8516 -33 c15
-24 -20 -56 -49 -45 -20 8 -19 24 3 40 20 16 39 18 46 5z m7185 -47 c22 -28
28 -54 12 -54 -12 0 -28 21 -40 53 -13 34 1 35 28 1z m-5790 -66 c11 -18 28
-44 38 -56 15 -21 15 -30 4 -70 -7 -26 -19 -55 -28 -65 -15 -16 -18 -16 -32
-2 -12 12 -17 42 -19 120 -4 113 3 126 37 73z m-1531 10 c16 -16 15 -53 -3
-68 -22 -18 -35 -3 -35 41 0 40 14 51 38 27z m276 -70 c13 -29 42 -113 66
-186 46 -145 45 -162 -12 -162 -37 0 -81 42 -76 73 2 13 9 21 18 18 53 -13 62
9 26 60 -56 77 -77 119 -83 168 -6 49 6 81 29 81 5 0 19 -24 32 -52z m-128 -4
c27 -63 14 -174 -21 -187 -23 -9 -35 31 -37 123 -2 110 26 141 58 64z m729
-44 c44 -188 106 -350 134 -350 32 0 41 -22 41 -98 0 -71 -18 -133 -43 -149
-19 -12 -97 -3 -152 18 -31 11 -89 45 -128 75 l-72 54 -3 -36 c-7 -79 101
-157 244 -176 73 -10 111 -24 100 -36 -11 -11 36 -82 80 -121 84 -74 98 -47
32 62 -50 83 -53 118 -15 176 20 30 34 41 52 41 35 0 38 16 25 105 -6 42 -9
80 -5 83 9 10 61 -55 87 -108 25 -52 34 -60 69 -60 29 0 49 -17 49 -42 0 -30
52 -129 77 -145 17 -12 37 -14 75 -10 113 14 121 -52 13 -100 l-40 -17 30 -4
c44 -6 102 15 181 64 40 24 74 44 77 44 2 0 -2 -28 -9 -62 -20 -96 -18 -123
10 -136 13 -6 40 -14 59 -17 l36 -7 -11 35 c-13 44 1 101 41 171 l28 47 31
-80 c42 -106 41 -135 -8 -225 -44 -81 -46 -86 -26 -86 25 0 115 99 128 141 12
40 13 41 49 36 72 -10 166 -98 189 -178 15 -50 12 -118 -6 -180 -19 -65 -45
-102 -84 -126 -36 -21 -38 -33 -6 -33 61 0 163 160 191 301 7 38 53 56 105 40
77 -23 73 -72 -10 -142 l-51 -43 43 -13 c85 -25 158 -132 166 -246 9 -120 41
-69 49 78 6 97 5 105 -13 111 -44 14 -64 29 -78 58 -10 21 -12 34 -4 43 17 21
65 -12 181 -127 126 -126 129 -137 62 -198 -50 -46 -57 -69 -21 -78 42 -10
106 37 165 123 l22 32 117 -118 c118 -120 175 -162 194 -143 15 15 -5 65 -47
116 -19 24 -35 46 -35 50 0 10 112 -49 152 -82 21 -16 54 -49 74 -73 20 -24
50 -54 67 -67 33 -24 103 -49 113 -40 2 3 -11 32 -31 64 -19 33 -35 67 -35 77
0 26 33 21 75 -13 21 -17 66 -39 101 -50 155 -47 240 -125 227 -207 -4 -24 -1
-34 16 -42 16 -9 21 -21 21 -52 0 -42 -23 -109 -38 -109 -5 0 -35 20 -66 45
-32 25 -69 45 -82 45 -41 0 -32 -22 57 -142 64 -87 78 -120 59 -143 -22 -27
-55 -18 -81 23 -17 26 -33 38 -52 40 -27 3 -28 2 -16 -20 7 -13 25 -39 41 -59
18 -22 26 -42 22 -52 -8 -23 -109 -88 -154 -99 -31 -8 -48 -5 -104 17 -37 15
-70 24 -73 21 -3 -3 16 -54 43 -113 52 -118 65 -193 45 -256 -23 -68 -122
-131 -244 -156 -50 -11 -57 -15 -57 -36 0 -12 -7 -26 -16 -29 -29 -11 -224
-20 -224 -10 0 5 21 20 47 34 76 40 165 130 203 205 26 51 35 84 40 143 6 82
13 99 66 169 39 51 42 63 14 63 -29 0 -102 -71 -130 -127 -19 -38 -25 -65 -26
-129 -3 -99 -22 -142 -94 -207 -47 -42 -112 -74 -234 -113 -47 -15 -41 -30 21
-54 32 -13 62 -26 66 -30 5 -4 -25 -12 -65 -18 -79 -12 -140 -4 -166 22 -14
14 -13 21 11 68 15 29 35 83 47 119 22 74 45 98 112 123 59 22 109 77 137 150
22 61 28 150 10 162 -22 13 -40 -24 -53 -111 -11 -78 -16 -91 -43 -115 -38
-34 -131 -70 -181 -70 -25 0 -46 7 -61 22 -22 19 -23 27 -18 92 l6 71 -30 -63
c-26 -53 -38 -66 -72 -82 -44 -19 -148 -90 -133 -90 5 0 38 12 73 26 36 14 76
24 90 22 36 -4 83 -66 90 -117 13 -99 -81 -199 -189 -202 -69 -2 -93 -12 -93
-39 -1 -23 -4 -25 -48 -23 -25 0 -77 11 -114 24 l-68 23 70 12 c108 19 245 77
245 104 0 12 -8 12 -230 14 -149 1 -169 3 -211 24 -56 27 -57 27 -78 1 -14
-18 -24 -21 -53 -15 -19 3 -43 13 -54 20 -18 14 -18 16 16 51 51 52 146 96
222 102 57 5 65 3 91 -21 36 -34 116 -80 124 -72 10 10 -95 114 -143 142 -39
23 -43 23 -77 9 -84 -35 -322 -2 -466 65 -74 35 -81 36 -81 12 0 -38 93 -105
190 -138 90 -30 84 -37 -30 -31 -151 8 -278 46 -301 89 -15 27 0 40 52 47 90
13 43 48 -129 98 -110 31 -236 90 -315 146 -101 72 -139 97 -149 97 -5 0 -6
-16 -2 -35 6 -35 6 -36 -22 -29 -41 9 -105 46 -118 66 -22 36 9 46 174 57 175
12 250 24 327 52 51 20 103 67 103 95 0 16 -36 19 -45 4 -4 -6 -30 -24 -58
-40 -86 -49 -191 -39 -334 34 -71 35 -79 33 -42 -13 40 -51 32 -65 -34 -58
-40 3 -54 10 -70 31 -16 22 -24 26 -49 21 -37 -8 -114 28 -178 84 l-45 39 105
-2 c123 -1 178 15 229 68 23 24 34 46 38 77 l6 44 -32 -30 c-30 -28 -39 -30
-116 -34 -207 -8 -485 100 -485 189 0 35 16 48 75 59 26 5 59 17 72 27 34 26
68 86 60 107 -6 16 -12 15 -58 -10 -39 -20 -70 -28 -130 -31 -95 -5 -117 6
-154 78 -28 55 -51 73 -77 59 -23 -12 -31 3 -18 36 14 37 13 41 -16 69 -32 29
-28 59 12 99 22 23 36 27 80 27 48 0 54 2 54 21 0 27 -55 79 -84 79 -12 0 -31
7 -43 15 -22 15 -63 110 -63 145 0 11 -4 20 -10 20 -5 0 -10 -17 -10 -37 0
-73 -15 -71 -53 4 -81 160 -139 386 -140 543 0 126 19 166 75 154 31 -6 32 -3
47 154 8 89 21 125 38 108 5 -4 7 -97 5 -207 -2 -112 1 -199 6 -199 5 0 17 9
27 20 10 11 20 19 21 17 2 -2 -3 -27 -11 -57 -8 -30 -15 -72 -15 -93 0 -40
-14 -77 -30 -77 -20 0 -34 49 -44 150 -6 58 -16 104 -21 104 -6 -1 -16 -20
-24 -42 -35 -97 61 -482 120 -482 16 0 10 49 -12 91 -11 23 -18 43 -15 46 3 3
25 0 50 -7 85 -24 146 15 154 100 5 58 -6 64 -38 20 -12 -16 -28 -30 -36 -30
-11 0 -14 27 -14 154 0 164 9 217 35 196 8 -6 29 -37 46 -68 l33 -57 9 38 c11
47 34 59 122 66 65 6 71 8 92 39 12 18 27 58 33 89 14 65 6 78 -47 78 -52 0
-76 36 -81 123 -4 62 -2 69 23 95 35 35 88 37 122 5 20 -19 26 -20 33 -8 7 12
12 11 30 -5 36 -32 100 -175 110 -242 10 -74 15 -83 42 -83 12 0 41 -23 71
-56 117 -127 131 -140 135 -121 2 10 -11 45 -28 79 -39 75 -56 133 -65 220 -7
76 4 254 15 241 4 -4 15 -42 25 -83z m2954 24 c26 -33 27 -54 2 -54 -22 0 -51
35 -51 62 0 26 25 22 49 -8z m-531 -2 c70 -27 137 -75 218 -157 39 -40 107
-97 151 -126 92 -62 145 -119 204 -222 23 -40 60 -103 82 -142 23 -38 58 -87
79 -108 24 -24 38 -47 38 -63 0 -17 8 -27 25 -34 13 -5 36 -26 49 -47 28 -41
108 -234 145 -346 25 -75 39 -87 104 -87 35 0 50 -6 71 -27 52 -51 7 -99 -50
-54 -18 14 -34 19 -50 15 -32 -8 -88 26 -204 126 -104 89 -174 135 -190 125
-14 -9 0 -33 89 -144 90 -114 130 -179 138 -226 11 -68 -26 -41 -232 167 -110
112 -212 214 -228 227 -50 45 -31 -2 44 -105 89 -122 143 -221 163 -300 9 -34
16 -65 16 -69 0 -13 -106 69 -179 139 -40 39 -120 128 -176 197 -147 178 -263
282 -238 211 11 -31 88 -145 182 -272 90 -120 161 -243 149 -255 -3 -4 -20 1
-37 10 -89 46 -501 515 -501 570 0 8 22 18 56 25 56 12 163 62 176 83 4 7 -8
19 -30 32 -29 16 -37 27 -37 49 -1 37 -23 48 -90 44 l-55 -3 53 -43 c98 -78
100 -119 4 -115 -72 3 -156 34 -265 99 -52 31 -96 53 -99 50 -3 -3 34 -46 83
-96 71 -73 86 -93 74 -100 -22 -14 -40 -12 -87 10 -58 26 -142 85 -248 174
-49 42 -93 76 -97 76 -19 0 -2 -24 85 -128 95 -114 125 -157 114 -168 -37 -37
-253 179 -322 320 -13 28 -27 71 -31 96 l-6 45 45 -50 45 -50 11 28 c12 32 10
33 99 -35 48 -36 72 -48 98 -48 45 0 74 16 74 40 0 25 -27 39 -87 46 -71 8
-101 23 -124 60 -16 27 -27 34 -51 34 -27 0 -30 3 -24 24 3 13 9 32 12 41 6
15 3 16 -24 11 -41 -9 -46 9 -37 132 l8 97 41 -50 c80 -98 184 -195 216 -201
18 -4 43 -21 60 -42 22 -27 33 -33 41 -25 14 14 4 47 -53 182 -56 132 -74 212
-58 251 18 43 46 38 99 -16 63 -66 179 -144 211 -144 20 0 39 12 65 41 43 48
42 59 -10 146 -42 69 -43 75 -9 63 39 -15 73 -12 101 10 32 25 50 25 111 2z
m4779 -40 c45 -67 66 -114 106 -227 43 -126 52 -178 33 -195 -12 -9 -18 -7
-30 12 -32 49 -77 160 -110 274 -58 199 -58 224 1 136z m145 11 c68 -77 116
-287 89 -383 -6 -22 -9 -18 -20 30 -8 30 -33 104 -58 165 -49 121 -66 205 -41
205 8 0 22 -8 30 -17z m-8312 -123 c0 -33 -4 -60 -10 -60 -6 0 -10 27 -10 60
0 33 4 60 10 60 6 0 10 -27 10 -60z m-140 10 c0 -25 -10 -50 -21 -50 -10 0
-12 63 -3 73 11 10 24 -3 24 -23z m2034 14 c9 -24 7 -39 -9 -60 -13 -18 -14
-15 -15 29 0 46 12 62 24 31z m5970 -79 c61 -85 96 -158 107 -224 10 -60 0
-337 -11 -324 -13 15 -180 604 -180 636 0 17 38 -23 84 -88z m-162 -15 c74
-148 188 -533 165 -556 -21 -21 -62 62 -133 269 -122 360 -138 499 -32 287z
m-3279 -19 c30 -27 34 -41 13 -41 -7 0 -30 20 -50 44 -59 72 -46 71 37 -3z
m-2953 -61 c24 -47 29 -150 6 -150 -27 0 -39 32 -44 111 -5 90 6 102 38 39z
m-1604 -155 c26 -163 28 -245 7 -252 -28 -9 -37 43 -41 232 -2 105 -1 187 2
184 4 -4 18 -78 32 -164z m2201 -148 c5 -31 3 -39 -8 -35 -8 2 -19 15 -26 29
-11 22 -54 254 -52 275 2 15 79 -228 86 -269z m2267 257 c7 -19 -3 -64 -15
-64 -5 0 -9 18 -9 40 0 40 13 53 24 24z m218 -98 c149 -122 228 -278 244 -481
8 -101 -4 -93 -52 35 -39 105 -78 180 -171 323 -117 181 -121 205 -21 123z
m-2168 -39 c17 -52 21 -117 7 -117 -15 0 -43 81 -48 140 -5 49 -4 53 10 40 8
-8 22 -37 31 -63z m5240 23 c21 -72 31 -170 18 -170 -14 0 -39 85 -48 163 -8
72 9 77 30 7z m698 -89 c28 -25 30 -31 19 -45 -7 -9 -21 -16 -31 -16 -25 0
-70 38 -70 59 0 41 38 42 82 2z m226 17 c-8 -22 -53 -49 -71 -42 -24 9 -21 21
11 38 33 18 65 20 60 4z m69 -74 c-35 -30 -177 -84 -177 -67 0 12 133 93 167
102 38 10 42 -7 10 -35z m-6891 -35 c64 -61 68 -79 19 -79 -41 0 -80 32 -91
74 -6 26 0 56 11 56 4 0 31 -23 61 -51z m6346 -37 c17 -50 18 -57 4 -71 -15
-14 -18 -14 -33 1 -18 18 -30 115 -19 145 7 17 8 17 18 -1 6 -10 19 -43 30
-74z m-1140 1 c24 -28 61 -106 122 -262 86 -218 114 -353 81 -397 -8 -10 -15
-16 -15 -13 0 4 -9 51 -20 105 -25 123 -59 226 -121 373 -75 174 -92 245 -47
194z m-4535 -75 c19 -31 34 -61 32 -67 -6 -17 -103 61 -113 91 -5 14 -6 33 -2
43 10 26 40 1 83 -67z m2105 -45 c32 -35 93 -135 152 -250 44 -86 49 -102 26
-88 -21 13 -169 218 -201 278 -42 80 -29 115 23 60z m3893 8 c9 -16 -33 -33
-96 -38 -73 -7 -79 10 -11 31 55 17 98 20 107 7z m-300 -47 c17 -21 33 -28 80
-33 l60 -8 -50 -24 c-71 -34 -172 -34 -209 0 -37 35 -34 68 7 86 42 19 87 11
112 -21z m-5757 -5 c27 -17 69 -33 93 -36 24 -3 58 -14 75 -24 49 -29 112
-119 99 -140 -8 -13 -41 8 -116 73 -31 26 -60 48 -63 48 -4 0 -4 -16 0 -35 3
-19 2 -35 -3 -35 -20 0 -102 60 -127 92 -25 34 -36 88 -17 88 5 0 32 -14 59
-31z m5382 -64 c0 -24 -4 -47 -10 -50 -6 -4 -10 15 -10 50 0 35 4 54 10 50 6
-3 10 -26 10 -50z m138 -140 c12 -87 14 -117 5 -126 -18 -18 -43 -3 -60 38
-17 42 -24 234 -9 268 15 34 45 -52 64 -180z m522 106 c0 -15 -15 -21 -77 -34
-43 -9 -98 -19 -123 -22 l-45 -5 45 21 c130 62 200 76 200 40z m-3762 -210
c64 -81 91 -133 84 -166 l-4 -25 -38 21 c-65 37 -151 106 -177 143 -22 30 -26
49 -30 128 l-5 93 59 -64 c32 -35 82 -94 111 -130z m2242 79 c22 -43 27 -85 9
-74 -14 9 -48 84 -49 107 0 26 17 12 40 -33z m-6827 -21 c17 -32 45 -66 70
-84 23 -17 43 -41 45 -53 5 -35 -16 -86 -54 -131 -42 -49 -51 -46 -90 31 -31
61 -30 64 9 34 42 -32 67 -34 67 -5 0 12 -20 65 -43 118 -24 53 -47 109 -51
124 -11 47 15 28 47 -34z m3174 9 c98 -103 203 -239 203 -263 0 -14 9 -43 20
-65 21 -41 26 -70 12 -70 -19 0 -94 63 -228 189 -137 130 -210 189 -219 179
-3 -3 10 -28 30 -56 40 -59 41 -62 17 -62 -21 0 -98 47 -161 99 -42 35 -43 36
-20 42 13 4 77 7 141 8 106 1 119 3 130 21 18 29 29 25 75 -22z m4261 -158 c0
-25 -4 -56 -8 -70 -5 -17 -8 5 -8 65 0 59 2 83 8 70 5 -11 8 -40 8 -65z m-524
-58 c31 -98 49 -191 44 -223 -4 -22 -6 -21 -21 14 -21 46 -67 232 -67 270 0
46 18 21 44 -61z m1583 33 c2 -6 -3 -19 -10 -29 -10 -14 -32 -19 -100 -23 -51
-4 -87 -2 -87 3 0 12 51 43 88 54 36 11 105 8 109 -5z m-987 -179 c0 -59 6
-109 16 -137 34 -96 10 -277 -43 -318 -40 -32 -80 -26 -163 24 -41 24 -78 45
-82 45 -3 0 -10 -12 -15 -27 l-10 -28 -16 26 c-9 14 -21 49 -27 78 -13 71 -13
352 0 331 5 -8 10 -31 10 -50 0 -19 5 -52 11 -74 l11 -39 20 34 20 33 14 -26
c7 -14 29 -83 49 -153 19 -70 36 -129 38 -131 2 -2 10 22 17 53 21 96 89 341
111 399 11 30 25 54 30 54 5 0 9 -42 9 -94z m-1481 -66 c17 -69 35 -163 41
-210 9 -79 15 -508 6 -499 -2 2 -9 78 -15 169 -7 91 -18 210 -26 265 -12 80
-45 381 -45 403 0 21 12 -20 39 -128z m-1295 84 c18 -17 20 -32 7 -52 -7 -11
-13 -9 -30 9 -21 23 -26 40 -14 52 10 11 20 8 37 -9z m205 -20 c24 -30 28 -64
8 -64 -27 0 -54 46 -48 83 2 15 20 6 40 -19z m-4826 -61 c32 -49 48 -108 26
-101 -18 6 -66 84 -75 122 -10 41 14 30 49 -21z m4560 -23 c30 -11 62 -29 72
-40 18 -19 17 -20 -9 -20 -48 0 -136 46 -136 72 0 12 14 10 73 -12z m275 -54
c30 -65 59 -313 39 -333 -12 -12 -35 18 -46 60 -28 107 -36 297 -12 297 4 0
13 -11 19 -24z m676 -37 c3 -33 18 -88 32 -122 38 -90 47 -150 40 -257 -8
-134 -61 -340 -87 -340 -5 0 -9 168 -9 390 0 362 8 476 24 329z m1217 -1 c26
-49 41 -130 46 -259 9 -207 -19 -191 -71 42 -34 154 -34 239 0 239 7 0 19 -10
25 -22z m842 -32 c15 -39 -38 -131 -71 -124 -24 5 -20 54 8 101 22 38 53 49
63 23z m-1136 -183 c14 -34 16 -126 4 -178 -6 -25 -9 -18 -15 40 -4 39 -14 95
-22 126 -8 31 -14 60 -14 64 0 16 34 -22 47 -52z m553 38 c15 -30 12 -138 -5
-172 -17 -32 -62 -56 -77 -41 -10 10 15 162 33 210 11 27 35 29 49 3z m-2728
-40 c70 -18 73 -20 73 -48 0 -21 14 -45 47 -82 61 -67 82 -131 67 -201 -14
-64 -30 -78 -65 -56 -47 31 -87 107 -129 246 -9 30 -32 77 -51 106 -34 52 -42
70 -24 59 5 -3 42 -14 82 -24z m447 -7 c26 -34 26 -48 0 -84 -20 -27 -21 -33
-11 -101 13 -89 6 -107 -50 -116 l-42 -6 39 -14 c75 -25 79 -56 16 -132 -59
-72 -71 -94 -71 -129 0 -25 -9 -43 -34 -68 -34 -34 -66 -45 -66 -21 -1 6 -9 2
-19 -10 -11 -13 -22 -23 -25 -23 -11 0 -6 128 9 211 8 46 26 118 40 159 14 41
28 104 32 140 7 83 22 107 70 115 60 10 68 17 64 63 -3 50 16 56 48 16z m339
-26 c23 -50 42 -115 42 -143 -1 -20 -1 -20 -15 -1 -17 23 -49 106 -60 154 -10
46 9 40 33 -10z m377 -15 c14 -38 17 -144 6 -205 -25 -129 -51 -114 -51 29 0
135 24 230 45 176z m1757 -30 c2 -16 0 -46 -4 -68 -9 -46 -68 -175 -80 -175
-13 0 -9 134 6 184 24 79 71 114 78 59z m-7006 6 c3 -6 -3 -21 -15 -32 -19
-20 -22 -20 -37 -5 -9 9 -14 24 -11 32 7 18 52 22 63 5z m8024 -5 c0 -8 -23
-39 -51 -69 -53 -56 -168 -124 -247 -145 -24 -6 -51 -14 -60 -17 -24 -9 44 62
100 103 26 19 68 41 95 49 26 8 71 33 98 55 55 44 65 48 65 24z m-4097 -29
c-4 -15 -66 -12 -71 3 -3 10 6 13 34 10 22 -2 38 -7 37 -13z m3251 -25 c40
-15 35 -55 -14 -100 -38 -35 -119 -81 -169 -95 -23 -7 -24 -5 -17 26 8 41 59
121 98 154 31 27 61 31 102 15z m-3163 -46 c17 -21 1 -81 -56 -205 -25 -52
-45 -108 -45 -124 0 -16 16 -56 36 -87 65 -107 36 -149 -86 -124 -73 15 -68 8
23 -29 37 -16 70 -32 72 -35 3 -4 -41 -47 -96 -95 -84 -74 -103 -85 -114 -74
-7 8 -40 47 -74 87 -81 95 -104 95 -61 1 26 -57 25 -93 -4 -154 -42 -92 -132
-175 -188 -175 -16 0 -28 3 -26 8 2 4 19 38 38 77 31 62 35 79 36 155 1 47 2
93 3 102 2 28 48 74 156 158 124 96 145 126 145 206 0 150 180 381 241 308z
m691 -4 c20 -6 56 -27 80 -46 43 -36 67 -40 121 -19 13 6 17 2 17 -14 0 -26
16 -58 63 -128 74 -111 69 -160 -22 -203 -28 -13 -51 -27 -51 -32 0 -11 77
-10 120 2 20 5 53 28 75 50 21 22 43 40 48 40 5 0 43 -33 84 -72 81 -78 151
-171 173 -228 19 -49 27 -58 60 -65 37 -8 75 -53 112 -130 33 -71 35 -107 7
-159 -23 -43 -19 -66 11 -66 30 0 60 -18 60 -35 0 -23 -58 -18 -117 10 -29 13
-53 22 -53 19 0 -9 54 -55 107 -89 65 -43 69 -51 46 -77 -24 -28 -74 -48 -118
-48 -41 0 -43 -5 -13 -37 l21 -23 -24 -1 c-69 -3 -185 11 -205 25 -11 9 -20
32 -23 62 -5 37 -11 50 -24 52 -32 6 -138 -40 -171 -73 -24 -26 -43 -34 -86
-40 -92 -12 -104 -42 -41 -101 28 -27 64 -45 134 -69 53 -17 103 -38 112 -45
14 -12 14 -15 -2 -32 -51 -57 -155 -92 -225 -76 -70 15 -111 50 -174 147 -33
50 -63 91 -67 91 -5 0 -6 -18 -2 -40 12 -72 9 -128 -9 -155 -36 -55 -153 -84
-351 -85 -126 -1 -179 -10 -183 -31 -4 -24 30 -30 134 -22 l92 6 25 -41 c19
-29 37 -44 69 -54 24 -8 42 -19 41 -24 -8 -40 206 -124 404 -158 46 -8 104
-26 131 -39 26 -14 74 -39 107 -55 32 -17 98 -43 145 -57 141 -44 152 -49 172
-75 22 -30 33 -97 47 -286 16 -212 15 -353 -4 -361 -30 -11 -286 92 -352 143
-39 30 -53 25 -53 -19 0 -51 32 -91 107 -134 80 -46 89 -71 33 -90 -45 -16
-90 -8 -160 27 -71 36 -214 142 -235 174 -15 23 -15 27 4 65 12 22 21 46 21
52 0 20 -41 99 -51 99 -5 0 -9 -22 -9 -49 0 -31 -6 -55 -15 -65 -54 -54 -294
-15 -469 76 -37 20 -91 62 -137 109 -78 79 -125 116 -135 106 -4 -3 -1 -29 6
-57 16 -66 8 -74 -72 -73 -104 1 -291 72 -425 160 -52 35 -70 59 -35 46 9 -3
64 -27 122 -53 121 -55 150 -65 150 -53 0 15 -64 70 -90 78 -30 9 -249 135
-361 207 -96 62 -118 83 -101 100 16 16 49 4 149 -57 51 -31 107 -61 125 -67
46 -16 90 -44 249 -163 223 -167 234 -165 59 10 -121 120 -180 194 -180 225 0
9 14 35 31 58 55 75 24 103 -58 52 -43 -27 -58 -31 -104 -28 l-54 3 50 24 50
23 -46 13 c-48 13 -120 57 -153 94 -23 25 -51 27 -60 5 -12 -31 -6 -44 20 -44
29 0 84 -49 84 -75 0 -24 -40 -13 -96 26 -45 31 -64 56 -57 75 4 12 -37 41
-140 98 -37 21 -67 39 -65 41 2 1 41 -4 88 -11 137 -20 430 -37 470 -27 31 8
35 13 38 46 4 42 31 67 74 67 16 0 28 5 28 10 0 14 -58 12 -170 -5 -120 -18
-179 -19 -238 -1 -26 8 -78 19 -117 24 -125 19 -226 89 -211 146 16 65 120 78
291 36 77 -19 127 -25 220 -25 130 0 176 11 225 52 32 26 41 60 15 49 -67 -25
-152 -38 -257 -37 -111 0 -167 6 -300 32 -131 26 -87 78 112 134 104 29 156
53 183 83 36 39 16 44 -161 37 -170 -6 -227 0 -227 26 0 11 26 16 120 21 434
26 493 34 610 90 66 31 76 33 177 33 97 0 106 1 92 16 -42 46 27 101 144 115
34 3 62 9 62 11 0 3 -19 22 -42 43 -39 35 -42 39 -31 63 19 42 86 80 149 85
51 4 53 6 34 19 -30 21 -25 45 19 95 52 59 77 108 101 202 24 94 26 193 5 243
-23 55 -20 63 23 63 20 0 54 -5 74 -10z m438 -50 c0 -27 -4 -50 -10 -50 -5 0
-10 23 -10 50 0 28 5 50 10 50 6 0 10 -22 10 -50z m1416 -161 c27 -105 -1
-194 -85 -272 -52 -49 -67 -53 -85 -25 -10 16 -4 41 45 218 13 44 23 120 26
185 l6 109 39 -77 c21 -43 46 -105 54 -138z m-6310 164 c31 -20 94 -100 94
-119 0 -24 -19 -16 -66 28 -39 36 -74 84 -74 103 0 10 21 5 46 -12z m5412 -75
c15 -107 15 -263 0 -330 -11 -50 -12 -51 -19 -23 -10 44 -11 435 -1 435 5 0
14 -37 20 -82z m-5484 3 c16 -17 26 -34 23 -38 -8 -8 -59 38 -90 82 l-22 30
30 -22 c17 -12 43 -35 59 -52z m3937 -113 c25 -36 56 -97 69 -135 22 -66 22
-70 7 -124 -9 -31 -26 -67 -37 -81 -37 -47 -133 -77 -146 -45 -7 19 34 125 63
164 13 18 36 36 51 39 31 8 52 22 52 36 0 15 -66 38 -108 38 -21 0 -46 6 -55
13 -17 12 -15 30 19 155 8 28 40 4 85 -60z m1013 1 c30 -36 32 -47 9 -56 -21
-8 -53 30 -53 63 0 32 13 30 44 -7z m1121 -26 l7 -48 21 43 c12 23 25 42 29
42 4 0 8 -42 8 -93 0 -122 -12 -141 -82 -135 -69 7 -92 32 -91 98 1 52 19 92
57 122 33 27 43 22 51 -29z m-6059 -19 c24 -20 44 -43 44 -50 0 -21 -14 -17
-41 14 -74 82 -75 95 -3 36z m5074 -56 c0 -35 -25 -48 -45 -22 -19 25 -18 39
1 59 22 21 44 3 44 -37z m-4779 -19 c34 -36 37 -59 9 -59 -27 0 -70 43 -70 70
0 30 27 25 61 -11z m5109 -171 c7 -29 10 -66 8 -83 l-3 -30 -18 32 c-18 34
-24 133 -8 133 5 0 15 -24 21 -52z m161 -54 c11 -51 12 -164 0 -164 -5 0 -21
14 -35 31 -21 25 -26 41 -26 88 0 36 6 65 16 80 20 28 32 18 45 -35z m-1591
-99 c0 -2 -20 -23 -45 -46 -29 -27 -44 -48 -40 -58 6 -19 -42 -52 -108 -75
-109 -37 -302 -41 -302 -6 0 32 258 141 412 174 81 17 83 17 83 11z m-3317
-81 c54 -29 85 -56 98 -86 6 -16 9 -31 7 -34 -8 -7 -188 137 -188 150 0 7 39
-8 83 -30z m358 -65 c22 -12 16 -29 -10 -29 -23 0 -73 39 -66 50 6 9 37 1 76
-21z m6149 -64 c0 -8 -9 -19 -19 -25 -25 -13 -101 -13 -101 0 0 6 1 10 3 10 1
0 20 7 42 15 52 18 75 19 75 0z m-3530 -53 c0 -29 -199 -68 -214 -43 -10 16
10 39 37 44 42 8 177 7 177 -1z m-2118 -96 c54 -26 127 -90 115 -102 -15 -16
-292 110 -281 128 11 17 106 3 166 -26z m4172 -39 c12 -32 -8 -60 -35 -52 -27
9 -24 -18 4 -50 16 -18 39 -28 82 -36 75 -14 90 -21 90 -44 0 -46 -132 -35
-189 16 -57 49 -73 143 -32 184 30 30 66 22 80 -18z m316 -87 c0 -6 -39 -10
-96 -10 -61 0 -93 4 -89 10 3 6 46 10 96 10 53 0 89 -4 89 -10z m-4420 -55
c17 -9 30 -20 30 -25 0 -15 -43 -12 -68 6 -45 32 -15 47 38 19z m746 4 c59
-15 51 -33 -16 -37 -66 -4 -100 4 -100 22 0 25 50 31 116 15z m4156 -27 c9 -9
7 -17 -10 -35 -32 -34 -85 -47 -186 -47 -80 0 -89 2 -112 26 -21 20 -32 24
-57 18 -28 -6 -30 -5 -19 9 8 9 37 21 65 26 29 6 61 13 72 15 43 10 234 1 247
-12z m283 7 c25 -6 50 -17 56 -25 16 -19 -26 -34 -99 -35 -31 -1 -68 -4 -82
-8 -23 -7 -22 -8 15 -15 22 -4 55 -14 74 -22 30 -13 33 -16 20 -29 -8 -8 -65
-26 -128 -40 -63 -14 -130 -33 -149 -41 -72 -30 -70 28 2 67 59 32 70 50 61
96 -10 54 4 63 102 63 46 0 104 -5 128 -11z m-796 -108 c43 -27 -44 -76 -122
-68 -57 5 -76 19 -57 42 24 29 146 47 179 26z m-274 -35 c19 -14 19 -15 1 -35
-31 -34 -96 -21 -96 19 0 31 61 41 95 16z m-2795 -6 c0 -5 -22 -10 -50 -10
-27 0 -50 5 -50 10 0 6 23 10 50 10 28 0 50 -4 50 -10z m2338 -16 c102 -16
142 -33 142 -61 0 -24 -48 -101 -70 -113 -29 -16 -46 -3 -74 55 -13 29 -29 56
-35 59 -5 4 -33 -3 -61 -14 -28 -11 -70 -20 -93 -20 -50 1 -249 65 -227 73 37
15 172 35 243 36 42 1 121 -6 175 -15z m-2488 -54 c11 -7 -2 -10 -43 -10 -36
0 -56 4 -52 10 8 13 75 13 95 0z m3256 -32 c31 -30 -15 -43 -156 -43 -101 0
-131 4 -157 18 -68 37 -35 45 164 43 108 -1 135 -4 149 -18z m-826 -84 c0 -29
-58 -74 -97 -74 -13 0 -7 10 22 40 33 34 75 53 75 34z m778 -95 c15 -1 92 -1
172 0 189 1 160 -12 -95 -45 -104 -13 -206 -28 -225 -34 -55 -16 -80 -13 -80
10 0 22 28 40 63 40 14 0 49 13 78 28 40 21 55 25 57 15 2 -7 16 -14 30 -14z
m-3227 -24 c57 -41 115 -78 169 -108 34 -18 60 -43 80 -74 17 -26 30 -51 30
-55 0 -5 -17 -6 -37 -3 l-38 6 59 -56 c32 -31 56 -58 54 -61 -3 -2 -19 1 -37
7 -39 14 -48 7 -33 -26 14 -31 5 -32 -47 -6 -46 24 -62 42 -65 76 -4 35 -27
58 -126 126 -86 58 -164 129 -143 129 7 0 40 -19 75 -43 100 -68 181 -115 212
-123 26 -6 27 -5 17 14 -6 11 -54 53 -107 92 -105 79 -134 105 -134 120 0 18
36 10 71 -15z m2928 -6 c42 -25 30 -45 -17 -28 -38 13 -64 49 -35 49 10 0 33
-9 52 -21z m-898 -5 c30 -9 72 -26 94 -37 l40 -21 -100 -14 c-151 -21 -215
-21 -228 0 -10 14 -5 24 23 53 40 41 81 46 171 19z m-2530 -79 c55 -90 203
-404 195 -412 -12 -13 -198 323 -246 445 -29 76 -6 61 51 -33z m3276 39 c13
-4 20 -10 17 -15 -7 -12 -71 -12 -78 0 -12 19 18 26 61 15z m528 -43 c-6 -5
-35 -22 -65 -38 -48 -24 -66 -28 -140 -27 -54 0 -98 6 -120 16 l-35 15 35 6
c19 3 82 8 140 11 58 3 119 10 135 15 41 13 61 13 50 2z m-3579 -186 c30 -60
54 -114 54 -120 -2 -41 -160 218 -160 262 0 36 54 -35 106 -142z m2530 -44
c123 -39 201 -88 177 -112 -23 -23 -113 19 -209 99 -45 38 -45 38 32 13z
m-2771 -52 c38 -43 77 -117 69 -131 -10 -16 -43 13 -83 73 -63 94 -54 133 14
58z m1259 -51 c22 -32 20 -50 -5 -46 -27 4 -44 30 -36 52 9 22 23 20 41 -6z
m-831 -184 c49 -87 108 -186 132 -219 78 -111 90 -155 41 -155 -27 0 -46 18
-46 44 -1 40 -28 96 -102 213 -88 138 -138 234 -138 264 0 42 25 10 113 -147z
m513 119 c7 -3 16 -14 19 -24 4 -12 19 -22 36 -26 38 -7 61 -42 57 -83 l-3
-32 -110 67 c-60 37 -118 74 -128 83 -18 16 -18 17 5 24 22 7 97 1 124 -9z
m-404 -20 c38 -42 61 -81 53 -93 -10 -17 -43 17 -71 73 -27 53 -20 61 18 20z
m-284 -173 c18 -23 32 -30 56 -30 20 0 40 -8 51 -20 22 -25 14 -36 -15 -20
-31 17 -35 7 -22 -51 14 -61 15 -69 2 -69 -25 0 -167 251 -153 273 6 10 28
-13 81 -83z m-91 -136 c17 6 33 -4 75 -46 154 -155 291 -402 234 -424 -42 -16
-148 134 -162 228 -9 60 -28 78 -79 78 -51 0 -58 11 -46 78 11 54 7 64 -14 36
-20 -27 -44 -10 -77 57 -37 74 -34 82 10 30 30 -34 43 -42 59 -37z m-119 -40
c-5 -42 -28 -43 -28 -1 0 18 3 37 7 41 12 12 25 -11 21 -40z m1774 -37 c29
-13 85 -45 125 -70 153 -98 217 -121 373 -132 53 -3 100 -13 126 -25 39 -20
212 -186 202 -195 -10 -10 -237 35 -325 64 -50 17 -139 53 -197 80 -108 51
-134 55 -71 12 58 -39 119 -111 106 -124 -22 -22 -84 -13 -131 19 -25 17 -97
57 -160 89 -182 91 -285 165 -303 217 -9 25 29 48 78 48 22 0 56 8 75 19 46
24 42 24 102 -2z m-466 -36 c101 -35 161 -68 187 -102 20 -28 36 -119 20 -119
-5 0 -25 16 -44 36 -58 62 -130 114 -155 114 -32 0 -66 23 -99 66 -33 43 -21
44 91 5z m-178 -31 c39 -37 53 -60 34 -60 -8 0 -55 48 -81 83 -24 30 3 18 47
-23z m-682 -35 c75 -54 107 -95 102 -132 -4 -39 -36 -41 -70 -6 -29 30 -114
183 -103 183 4 0 36 -20 71 -45z m-502 -40 c18 -67 21 -115 7 -115 -18 0 -57
162 -45 182 10 16 22 -4 38 -67z m-85 -67 c1 -37 6 -79 11 -93 9 -23 15 -26
36 -21 l25 7 -22 -30 c-19 -26 -21 -38 -16 -93 8 -84 20 -123 62 -192 20 -33
33 -66 30 -76 -3 -9 3 -24 15 -35 11 -10 20 -22 20 -26 0 -13 -50 -67 -82 -91
l-31 -21 28 47 28 48 -36 71 c-59 120 -104 303 -114 464 -5 78 -3 96 12 120
17 26 19 26 26 8 4 -11 8 -50 8 -87z m284 41 c54 -35 78 -66 111 -141 13 -29
42 -78 65 -108 22 -30 41 -58 41 -62 0 -16 -58 -7 -83 12 -29 23 -87 133 -87
165 0 25 -37 84 -83 133 -39 40 -24 41 36 1z m-81 -112 c45 -42 218 -286 218
-309 0 -4 -21 -8 -46 -8 -40 0 -51 5 -78 35 -18 19 -45 66 -61 105 -17 39 -40
83 -52 98 l-21 27 -26 -24 c-21 -19 -26 -21 -26 -8 0 36 40 107 60 107 4 0 18
-10 32 -23z m1689 -48 c75 -39 106 -68 57 -54 -37 12 -116 56 -134 76 -25 28
-11 24 77 -22z m-2177 -90 c-26 -28 -27 -30 -21 -116 7 -91 -1 -129 -24 -106
-15 15 -28 85 -29 159 0 80 21 107 78 96 l23 -5 -27 -28z m-166 -51 c20 -20
14 -76 -10 -100 -20 -20 -22 -20 -35 -3 -15 22 -17 54 -3 89 10 28 29 33 48
14z m403 -135 c33 -132 38 -183 14 -163 -31 26 -81 240 -68 291 5 19 7 19 15
5 5 -10 23 -69 39 -133z m230 100 c6 -21 22 -59 35 -85 25 -49 30 -78 16 -78
-16 0 -91 112 -98 145 -12 64 27 78 47 18z m-374 -42 c24 -36 77 -190 68 -199
-8 -9 -76 71 -101 120 -29 57 -33 121 -7 116 10 -2 28 -18 40 -37z m3131 -4
c8 -9 12 -23 8 -32 -8 -21 -41 -16 -117 16 -36 16 -47 25 -37 31 20 14 128 2
146 -15z m-3559 -33 c11 -10 -14 -36 -56 -58 -74 -37 -152 -56 -239 -59 -44
-2 -100 -9 -126 -17 -42 -13 -49 -12 -66 3 -14 13 -37 17 -88 17 -75 0 -104
10 -82 27 22 18 97 31 292 53 104 12 219 27 255 34 57 12 97 12 110 0z m-801
-70 c28 -19 30 -54 2 -54 -23 0 -60 33 -60 55 0 19 30 19 58 -1z m920 -59 c-3
-34 -11 -72 -19 -86 -13 -23 -13 -23 -20 21 -12 73 7 150 33 134 6 -4 8 -32 6
-69z m156 -11 c14 -14 14 -18 1 -44 -20 -38 -63 -51 -82 -25 -18 26 -17 32 12
60 28 29 47 31 69 9z m3134 -161 c61 -7 62 -18 6 -47 -43 -23 -169 -34 -249
-22 -55 9 -101 42 -84 62 9 11 42 14 143 14 72 0 155 -3 184 -7z m-3488 -186
c0 -23 -5 -49 -10 -57 -5 -8 -10 -10 -10 -4 0 5 -6 18 -13 28 -11 15 -17 17
-35 7 -34 -18 -28 5 13 46 19 19 39 32 45 28 5 -3 10 -25 10 -48z m390 17 c0
-27 -33 -73 -59 -83 -51 -19 -81 -21 -153 -11 -85 12 -108 18 -108 29 0 11
108 41 146 41 16 0 56 9 89 20 74 24 85 24 85 4z m1480 -165 c96 -48 180 -123
180 -160 0 -65 74 -124 230 -184 122 -47 133 -58 54 -53 -150 10 -428 196
-538 359 -62 92 -48 99 74 38z m1645 -309 c33 -6 71 -18 85 -25 l25 -13 -30
-12 c-39 -16 -336 -66 -441 -75 -70 -6 -87 -4 -131 15 -98 42 -127 104 -58
123 36 10 489 -1 550 -13z m-887 -96 c53 -35 -11 -55 -105 -34 -66 14 -74 26
-31 45 38 17 101 12 136 -11z m-1982 -79 c15 -23 15 -27 0 -50 -19 -29 -90
-72 -133 -81 -37 -7 -63 16 -63 57 0 36 13 38 28 4 7 -14 20 -25 31 -25 21 0
56 38 67 73 16 52 44 61 70 22z m1230 -111 c95 -27 217 -69 242 -83 13 -7 12
-10 -6 -15 -12 -4 -22 -12 -22 -17 0 -19 81 -66 149 -88 39 -12 71 -25 71 -28
0 -11 -140 7 -229 28 -112 28 -254 96 -314 151 -87 82 -51 99 109 52z m955
-34 c27 -15 24 -39 -7 -50 -34 -13 -144 -13 -144 0 0 12 96 60 118 60 7 0 22
-5 33 -10z"/>
<path d="M2310 12121 c0 -22 35 -51 62 -51 25 0 23 25 -4 50 -28 26 -58 26
-58 1z"/>
<path d="M9720 8371 c0 -22 23 -70 37 -75 38 -15 44 24 8 59 -24 25 -45 32
-45 16z"/>
<path d="M1735 7429 c-10 -14 3 -79 21 -106 8 -13 22 -23 31 -23 13 0 15 8 10
45 -10 66 -44 114 -62 84z"/>
<path d="M1630 6937 c0 -36 47 -128 69 -135 34 -11 -20 149 -56 162 -9 4 -13
-4 -13 -27z"/>
<path d="M1467 6913 c-9 -16 23 -99 57 -144 19 -26 54 -60 78 -76 l43 -29 0
-104 c0 -109 15 -170 41 -170 17 0 17 18 3 132 -13 101 -7 118 45 118 43 1
108 32 134 65 41 51 21 71 -39 39 -97 -50 -263 10 -316 116 -26 50 -39 65 -46
53z"/>
<path d="M2446 6647 c-19 -28 -47 -99 -41 -106 15 -15 68 79 63 112 -3 21 -4
21 -22 -6z"/>
<path d="M1934 6603 c11 -84 76 -186 76 -121 0 30 -28 115 -48 146 -24 37 -35
27 -28 -25z"/>
<path d="M1460 6527 c-1 -78 154 -265 239 -287 35 -9 67 -34 166 -131 131
-126 181 -158 252 -159 35 0 48 7 90 45 26 24 42 44 36 45 -7 0 -42 -12 -78
-26 -42 -17 -74 -24 -90 -20 -14 4 -56 36 -94 72 -76 71 -121 147 -121 202 0
18 -5 42 -11 53 -9 18 -12 19 -27 6 -29 -25 -58 -28 -108 -11 -65 21 -131 73
-174 135 -19 27 -45 62 -57 77 l-22 27 -1 -28z"/>
<path d="M1310 6456 c0 -44 27 -98 47 -94 21 4 19 27 -5 77 -21 44 -42 52 -42
17z"/>
<path d="M3255 6300 c-8 -13 107 -130 128 -130 23 0 21 16 -8 65 -35 61 -101
96 -120 65z"/>
<path d="M3174 6217 c-9 -24 36 -100 51 -85 8 8 -15 76 -30 88 -12 10 -16 9
-21 -3z"/>
<path d="M1527 6163 c-16 -15 5 -124 39 -201 16 -36 17 -37 24 -12 12 38 10
121 -3 159 -12 34 -48 67 -60 54z"/>
<path d="M2270 5868 c-31 -122 -61 -169 -136 -213 -25 -15 -44 -29 -42 -31 2
-2 33 1 69 7 81 13 122 7 161 -26 59 -50 129 -79 191 -79 52 -1 61 2 83 27 13
15 24 37 24 47 0 18 -3 17 -49 -6 -37 -20 -56 -24 -84 -19 -52 10 -121 57
-157 106 -28 39 -30 48 -30 130 0 97 -13 123 -30 57z"/>
<path d="M2643 5854 c-3 -8 -3 -45 0 -82 6 -64 19 -93 34 -78 13 12 16 132 4
155 -14 25 -29 27 -38 5z"/>
<path d="M2420 5786 c0 -23 50 -76 71 -76 26 0 24 23 -7 59 -27 32 -64 42 -64
17z"/>
<path d="M1800 5751 c0 -5 25 -34 54 -64 49 -50 54 -59 50 -89 -4 -24 0 -40
16 -61 32 -41 43 -34 35 23 -6 45 -5 51 15 58 l21 8 -22 28 c-25 32 -134 106
-156 106 -7 0 -13 -4 -13 -9z"/>
<path d="M2750 5641 c0 -28 99 -129 158 -160 34 -18 29 8 -12 59 -56 71 -146
133 -146 101z"/>
<path d="M2520 5460 c0 -21 96 -104 147 -127 93 -43 292 -48 331 -9 14 14 13
16 -9 24 -13 5 -67 12 -120 16 -123 9 -184 25 -257 70 -60 36 -92 45 -92 26z"/>
<path d="M2354 5396 c30 -79 40 -99 60 -116 13 -10 16 -10 16 3 0 32 -75 177
-92 177 -4 0 3 -29 16 -64z"/>
<path d="M2996 5089 c56 -47 138 -89 174 -89 39 0 123 44 153 79 55 66 -6 70
-89 6 -31 -25 -68 -45 -81 -45 -12 0 -61 20 -109 45 -47 25 -88 45 -91 45 -3
0 17 -18 43 -41z"/>
<path d="M3800 5068 c-76 -30 -121 -41 -162 -42 -62 -1 -71 -11 -38 -41 26
-23 72 -22 139 4 73 30 162 75 191 100 l25 20 -25 0 c-14 0 -72 -18 -130 -41z"/>
<path d="M2532 4997 c87 -77 223 -138 309 -139 81 0 186 65 177 111 -5 25 -27
23 -34 -4 -13 -50 -97 -69 -202 -44 -26 6 -94 33 -151 60 -122 58 -152 62 -99
16z"/>
<path d="M3974 5005 c-11 -28 2 -125 19 -142 14 -14 18 -13 42 13 24 25 34 29
80 28 30 -1 67 -4 82 -8 36 -7 11 5 -70 35 -32 11 -78 36 -103 55 -36 28 -46
31 -50 19z"/>
<path d="M3400 4941 c0 -18 43 -51 67 -51 29 0 30 15 1 34 -33 20 -68 29 -68
17z"/>
<path d="M3121 4850 c18 -22 58 -57 88 -78 l56 -37 110 0 c94 0 118 4 163 24
53 24 102 70 102 97 0 21 -22 17 -61 -12 -54 -41 -99 -56 -169 -56 -82 -1
-135 14 -234 63 -43 21 -80 39 -83 39 -2 0 11 -18 28 -40z"/>
<path d="M3704 4822 c19 -36 94 -105 106 -97 19 12 9 35 -33 80 -26 27 -53 45
-66 45 -20 0 -21 -1 -7 -28z"/>
<path d="M4635 4623 c19 -18 123 -55 145 -51 l22 3 -19 24 c-17 21 -31 26 -89
29 -44 3 -65 1 -59 -5z"/>
<path d="M4065 7220 c-9 -15 153 -172 201 -195 32 -15 39 -15 82 0 26 8 55 22
65 29 17 13 15 15 -20 26 -21 7 -88 41 -149 76 -116 67 -166 85 -179 64z"/>
<path d="M4125 6949 c-11 -16 34 -76 83 -112 75 -55 106 -67 169 -67 66 0 154
20 154 35 0 6 -33 13 -73 16 -106 9 -146 23 -214 73 -68 51 -110 70 -119 55z"/>
<path d="M4665 6540 c-10 -16 5 -49 27 -61 28 -15 183 -25 191 -12 4 6 -14 13
-43 16 -62 7 -90 22 -90 47 0 17 -7 20 -39 20 -22 0 -43 -5 -46 -10z"/>
<path d="M6184 5187 c-3 -10 -4 -51 0 -92 7 -81 2 -91 -46 -86 -23 2 -30 -3
-39 -26 -12 -32 -5 -121 11 -137 16 -15 36 14 44 64 5 30 13 44 30 52 30 13
36 34 36 123 -1 75 -22 137 -36 102z"/>
<path d="M5412 4358 c7 -21 99 -47 168 -48 87 0 68 15 -50 40 -112 23 -123 24
-118 8z"/>
<path d="M5124 4271 c26 -29 110 -61 211 -82 148 -31 244 -23 413 31 39 13 72
26 72 29 0 4 -66 2 -147 -2 -212 -12 -393 -3 -473 22 -84 27 -99 27 -76 2z"/>
<path d="M6243 4271 c-26 -22 -124 -41 -211 -41 -33 0 -63 -4 -67 -9 -10 -17
106 -53 172 -53 49 0 72 5 113 28 58 31 84 69 59 85 -21 13 -42 10 -66 -10z"/>
<path d="M4873 4174 c16 -8 58 -22 95 -29 73 -16 217 -20 192 -6 -24 14 -225
51 -272 51 l-43 -1 28 -15z"/>
<path d="M5369 4114 c-8 -10 -5 -19 15 -39 41 -41 83 -27 53 19 -19 29 -52 39
-68 20z"/>
<path d="M5725 4088 c57 -36 142 -68 180 -68 57 0 6 29 -133 76 -96 32 -107
30 -47 -8z"/>
<path d="M6087 4113 c-4 -3 -7 -14 -7 -24 0 -54 -195 -162 -325 -180 -119 -16
-157 -37 -113 -60 15 -8 60 -10 147 -6 150 6 238 30 296 80 34 29 39 39 43 90
2 31 2 68 -2 82 -6 24 -25 33 -39 18z"/>
<path d="M5030 3605 c0 -10 79 -57 90 -53 7 2 3 14 -10 31 -15 18 -31 27 -51
27 -16 0 -29 -2 -29 -5z"/>
<path d="M5543 3502 c-12 -2 -27 -10 -34 -18 -18 -21 13 -76 66 -119 43 -35
173 -115 187 -115 22 0 2 24 -54 68 -138 105 -155 127 -123 162 14 16 14 18
-2 22 -10 2 -28 2 -40 0z"/>
<path d="M5916 3417 c-28 -21 -12 -52 50 -99 62 -46 74 -64 74 -106 0 -66 -69
-83 -213 -53 -129 27 -258 71 -387 131 l-105 50 54 -50 c95 -86 289 -172 467
-205 132 -25 191 -4 216 77 18 60 42 72 119 58 78 -14 158 -44 277 -104 99
-50 182 -70 182 -44 0 9 -26 22 -74 37 -83 25 -145 71 -166 121 -9 21 -11 53
-7 98 l7 67 -46 -47 c-30 -31 -58 -50 -80 -54 -67 -12 -213 21 -277 62 -43 28
-44 40 -3 24 22 -8 28 -7 33 7 14 36 -80 60 -121 30z"/>
<path d="M6860 3164 c0 -6 11 -39 26 -73 27 -68 28 -108 3 -124 -12 -8 -33 -2
-81 21 -35 18 -68 32 -72 32 -5 0 -21 -11 -38 -25 -23 -20 -41 -25 -82 -25
-106 0 -278 60 -402 140 -67 44 -102 53 -85 21 24 -44 218 -160 337 -202 32
-11 84 -21 114 -21 99 -1 342 21 356 33 18 15 18 100 0 142 -14 33 -76 99 -76
81z"/>
<path d="M5910 2972 c0 -38 275 -211 297 -188 5 5 0 13 -10 20 -11 6 -66 41
-124 79 -121 78 -163 101 -163 89z"/>
<path d="M1291 12264 c-25 -31 -34 -62 -29 -95 5 -38 31 -28 56 21 37 74 17
130 -27 74z"/>
<path d="M857 11773 c-17 -16 8 -123 30 -130 17 -6 26 80 12 111 -12 25 -29
33 -42 19z"/>
<path d="M2876 11491 c-11 -18 62 -63 121 -74 71 -14 34 32 -55 66 -48 19 -59
21 -66 8z"/>
<path d="M1507 11468 c-21 -6 -56 -27 -78 -48 -33 -31 -39 -43 -39 -79 0 -135
152 -198 245 -101 23 25 30 41 33 90 9 123 -45 169 -161 138z m43 -68 c0 -13
-60 -50 -80 -50 -10 0 -3 11 18 30 32 30 62 39 62 20z"/>
<path d="M3055 11310 c22 -10 47 -19 55 -19 23 -1 81 -40 104 -69 11 -14 65
-47 120 -73 56 -26 143 -75 195 -108 52 -34 105 -61 118 -61 77 0 -41 90 -287
219 -168 87 -273 131 -314 130 l-31 0 40 -19z"/>
<path d="M1796 11248 c-27 -37 1 -51 43 -21 23 15 23 17 6 30 -25 18 -31 17
-49 -9z"/>
<path d="M1983 11250 c-13 -5 -23 -15 -23 -21 0 -12 88 -8 147 7 25 7 25 8 8
15 -27 10 -105 10 -132 -1z"/>
<path d="M1686 11176 c-77 -77 -101 -126 -62 -126 26 0 116 110 116 142 0 27
-15 22 -54 -16z"/>
<path d="M2446 11064 c-9 -23 -7 -62 3 -68 11 -7 21 17 21 49 0 29 -16 41 -24
19z"/>
<path d="M3476 10961 c24 -22 134 -98 212 -147 56 -35 89 -51 96 -44 20 20
-84 100 -221 169 -58 29 -109 42 -87 22z"/>
<path d="M9205 10959 c-98 -10 -153 -21 -265 -54 -38 -11 -78 -15 -130 -12
-63 4 -69 3 -40 -5 134 -40 195 -65 267 -108 45 -28 85 -50 89 -50 4 0 -21 29
-54 64 -73 76 -79 101 -25 111 20 3 159 10 309 15 260 7 325 15 293 36 -19 12
-323 14 -444 3z"/>
<path d="M2239 10728 c-17 -38 -30 -54 -47 -56 -30 -5 -38 -25 -45 -112 -3
-41 -15 -102 -27 -135 -35 -101 -35 -95 -9 -93 27 4 37 -21 38 -99 2 -96 17
-63 35 75 19 153 44 275 75 371 35 108 23 140 -20 49z"/>
<path d="M3820 10722 c0 -18 345 -300 355 -290 5 5 -116 126 -190 190 -101 87
-165 126 -165 100z"/>
<path d="M7890 10630 c0 -6 27 -10 61 -10 37 0 58 4 54 10 -3 6 -31 10 -61 10
-30 0 -54 -4 -54 -10z"/>
<path d="M8350 10630 c0 -6 7 -13 15 -16 21 -8 67 4 60 16 -8 13 -75 13 -75 0z"/>
<path d="M8510 10630 c0 -6 27 -10 61 -10 37 0 58 4 54 10 -3 6 -31 10 -61 10
-30 0 -54 -4 -54 -10z"/>
<path d="M8770 10591 c28 -18 138 -41 191 -40 l54 1 -60 20 c-64 21 -212 37
-185 19z"/>
<path d="M7578 10543 c-38 -15 -52 -43 -23 -43 26 0 75 30 75 45 0 18 -5 18
-52 -2z"/>
<path d="M3900 10531 c0 -13 26 -42 220 -251 329 -353 421 -479 406 -552 -4
-18 -2 -27 4 -23 24 15 109 -49 353 -262 226 -197 274 -222 437 -223 130 -1
122 -13 -35 -55 -120 -31 -150 -52 -61 -41 130 17 463 115 512 151 17 12 17
17 6 36 -13 21 -13 21 20 16 18 -4 53 -10 78 -13 l45 -7 -18 21 c-24 27 -17
37 40 56 65 22 83 41 83 89 0 50 32 82 140 138 119 62 151 108 49 70 -112 -42
-286 -153 -503 -321 -111 -85 -144 -95 -275 -80 -232 26 -280 49 -536 264
-172 144 -374 350 -495 506 -119 153 -301 353 -381 420 -84 70 -89 74 -89 61z
m2060 -1030 c0 -29 -88 -89 -162 -109 -44 -12 -47 -8 -15 19 81 69 177 118
177 90z"/>
<path d="M9565 10521 c-3 -6 16 -12 42 -16 147 -18 333 -82 464 -159 124 -73
198 -170 291 -380 51 -115 86 -170 72 -111 -13 55 -75 219 -110 293 -84 174
-250 286 -533 358 -94 24 -215 32 -226 15z"/>
<path d="M1962 10362 c-11 -26 -22 -61 -24 -77 -2 -25 1 -31 19 -33 17 -3 26
3 33 23 12 32 13 135 1 135 -5 0 -18 -21 -29 -48z"/>
<path d="M8757 10383 c-16 -15 -5 -23 33 -23 43 0 54 14 18 24 -30 8 -43 7
-51 -1z"/>
<path d="M2282 10322 c-41 -76 -66 -173 -57 -221 6 -33 8 -34 20 -17 15 19 80
284 73 292 -3 2 -19 -22 -36 -54z"/>
<path d="M3940 10342 c0 -9 66 -111 94 -146 23 -29 30 -13 11 24 -40 77 -105
152 -105 122z"/>
<path d="M6987 10332 c-22 -24 -21 -45 1 -65 26 -24 51 -21 95 9 46 31 43 39
-10 25 -55 -15 -76 -14 -69 4 3 8 9 22 12 30 8 21 -9 19 -29 -3z"/>
<path d="M8896 10341 c-7 -11 17 -21 49 -21 29 0 41 16 19 24 -23 9 -62 7 -68
-3z"/>
<path d="M9040 10300 c0 -5 18 -10 41 -10 24 0 38 4 34 10 -3 6 -22 10 -41 10
-19 0 -34 -4 -34 -10z"/>
<path d="M8555 10230 c-4 -6 32 -10 100 -10 68 0 104 4 100 10 -3 6 -48 10
-100 10 -52 0 -97 -4 -100 -10z"/>
<path d="M6794 10201 c-31 -19 -78 -71 -70 -78 2 -2 19 5 37 16 21 13 42 18
60 14 21 -4 30 0 38 15 28 52 -6 69 -65 33z"/>
<path d="M8348 10202 c-50 -6 -29 -22 28 -22 30 0 53 4 50 9 -7 11 -43 17 -78
13z"/>
<path d="M8898 10202 c-52 -6 -28 -22 32 -22 33 0 60 4 60 9 0 10 -52 17 -92
13z"/>
<path d="M9107 10151 c31 -26 170 -83 191 -79 37 8 -140 98 -191 98 l-22 -1
22 -18z"/>
<path d="M2370 10050 c0 -22 4 -40 10 -40 12 0 24 45 16 65 -11 29 -26 15 -26
-25z"/>
<path d="M7225 10020 c-138 -37 -238 -80 -223 -95 2 -2 40 6 83 19 44 13 111
32 148 41 37 10 78 26 90 36 l22 18 -25 0 c-14 -1 -56 -9 -95 -19z"/>
<path d="M8900 9981 l-25 -7 25 -7 c32 -9 90 -8 115 2 40 16 -64 26 -115 12z"/>
<path d="M9155 9934 c34 -26 255 -90 255 -74 0 20 -195 90 -250 90 -24 -1 -24
-1 -5 -16z"/>
<path d="M4280 9836 c21 -57 79 -163 99 -180 44 -40 10 42 -61 147 -42 61 -53
71 -38 33z"/>
<path d="M2017 9783 c-19 -38 -49 -144 -43 -150 8 -8 86 158 80 168 -10 16
-23 9 -37 -18z"/>
<path d="M8561 9726 c2 -2 51 -11 109 -20 156 -26 268 -55 333 -87 31 -16 57
-25 57 -20 0 5 -19 25 -42 45 -38 31 -41 38 -31 54 11 18 8 20 -25 26 -39 6
-408 9 -401 2z"/>
<path d="M2520 9580 c0 -47 4 -80 10 -80 6 0 10 33 10 80 0 47 -4 80 -10 80
-6 0 -10 -33 -10 -80z"/>
<path d="M2666 9589 c-9 -45 -6 -240 4 -264 l8 -20 8 20 c13 30 11 272 -2 285
-8 8 -13 3 -18 -21z"/>
<path d="M4627 9571 c-6 -25 10 -51 33 -51 26 0 26 31 2 53 -24 22 -29 21 -35
-2z"/>
<path d="M6082 9473 c-12 -2 -20 -9 -17 -14 8 -12 105 -12 105 1 0 6 -6 10
-12 10 -7 0 -22 2 -33 4 -11 2 -30 2 -43 -1z"/>
<path d="M8900 9402 c0 -5 28 -33 63 -64 40 -36 75 -78 95 -116 46 -85 70
-102 148 -102 35 0 64 3 63 8 0 4 -27 20 -60 35 -43 21 -85 55 -150 120 -104
106 -159 147 -159 119z"/>
<path d="M6220 9383 c-36 -14 -177 -84 -194 -98 -32 -24 -12 -27 44 -6 50 19
190 97 190 106 0 6 -21 5 -40 -2z"/>
<path d="M5780 9199 c-161 -71 -265 -107 -329 -114 -117 -12 -154 -33 -116
-65 22 -18 88 -7 202 36 121 45 325 136 378 169 l40 24 -30 1 c-16 0 -82 -23
-145 -51z"/>
<path d="M2630 9190 c0 -27 5 -50 10 -50 6 0 10 23 10 50 0 28 -4 50 -10 50
-5 0 -10 -22 -10 -50z"/>
<path d="M3800 9175 c0 -58 23 -162 39 -178 26 -26 1 161 -29 212 -7 12 -9 2
-10 -34z"/>
<path d="M4395 9135 c19 -83 35 -102 35 -42 0 32 -31 110 -47 120 -4 3 1 -32
12 -78z"/>
<path d="M3680 9006 c0 -47 9 -66 31 -66 23 0 25 29 4 70 -21 40 -35 38 -35
-4z"/>
<path d="M5115 9029 c-9 -14 21 -46 52 -54 56 -14 83 20 41 49 -26 18 -84 21
-93 5z"/>
<path d="M5615 8979 c-76 -17 -115 -30 -115 -39 0 -13 15 -12 103 1 65 10 127
32 127 44 0 8 -71 4 -115 -6z"/>
<path d="M3843 8913 c-4 -9 -1 -53 5 -97 7 -44 9 -82 7 -85 -3 -3 -25 17 -49
45 -24 27 -47 46 -50 43 -12 -12 25 -103 103 -254 85 -165 133 -243 139 -227
6 18 -99 534 -114 565 -16 31 -32 35 -41 10z"/>
<path d="M2960 8893 c0 -31 49 -223 65 -253 19 -36 42 -39 51 -6 13 52 -35
208 -78 254 -26 27 -38 28 -38 5z"/>
<path d="M2889 8865 c-2 -22 -2 -58 1 -80 5 -36 6 -37 13 -15 9 32 8 89 -2
115 -7 16 -9 12 -12 -20z"/>
<path d="M4667 8876 c-5 -13 15 -61 33 -80 17 -17 22 2 10 38 -13 42 -35 63
-43 42z"/>
<path d="M8935 8839 c62 -76 95 -104 95 -80 0 11 -72 81 -98 95 -14 8 -14 6 3
-15z"/>
<path d="M8360 8643 c0 -26 213 -263 225 -251 13 12 -63 118 -136 191 -62 61
-89 79 -89 60z"/>
<path d="M10020 8589 c0 -24 4 -38 10 -34 6 3 10 22 10 41 0 19 -4 34 -10 34
-5 0 -10 -18 -10 -41z"/>
<path d="M4736 8554 c46 -56 115 -115 128 -111 21 7 16 26 -14 61 -28 31 -125
96 -144 96 -4 0 10 -21 30 -46z"/>
<path d="M5054 8485 c-9 -23 2 -119 17 -147 12 -22 13 -22 21 17 11 49 2 119
-17 135 -12 10 -16 9 -21 -5z"/>
<path d="M8270 8340 c0 -7 10 -26 22 -43 62 -91 356 -422 366 -413 6 7 -127
188 -225 306 -79 95 -163 172 -163 150z"/>
<path d="M4953 8268 c-31 -34 -36 -63 -19 -97 28 -52 39 -49 31 9 l-7 52 60
-7 c34 -4 65 -4 71 -1 16 10 1 35 -30 51 -41 22 -82 19 -106 -7z"/>
<path d="M5334 8088 c-3 -5 -4 -10 -3 -12 72 -52 105 -59 70 -14 -22 28 -57
42 -67 26z"/>
<path d="M5908 8045 c16 -29 79 -95 91 -95 26 0 0 31 -78 95 -24 20 -24 20
-13 0z"/>
<path d="M5230 7931 c0 -16 74 -133 96 -152 20 -17 18 3 -5 49 -24 47 -90 122
-91 103z"/>
<path d="M5080 7886 c0 -30 70 -60 85 -36 6 10 -27 34 -62 45 -17 5 -23 2 -23
-9z"/>
<path d="M6970 7864 c0 -21 72 -94 94 -94 26 0 18 34 -16 67 -41 39 -78 52
-78 27z"/>
<path d="M5140 7773 c0 -38 110 -196 125 -181 3 3 -5 24 -20 46 -17 26 -25 48
-20 61 4 13 -4 30 -26 55 -33 39 -59 47 -59 19z"/>
<path d="M5910 7760 c0 -12 78 -65 85 -58 11 11 -9 39 -36 53 -33 17 -49 19
-49 5z"/>
<path d="M5610 7667 c0 -16 48 -85 73 -106 29 -24 21 11 -15 65 -34 49 -58 67
-58 41z"/>
<path d="M6570 7580 c-10 -18 -8 -19 18 -14 28 6 30 3 41 -40 6 -26 17 -46 25
-46 20 0 93 -82 191 -216 150 -203 169 -227 173 -214 10 29 -128 250 -256 408
-104 129 -167 169 -192 122z"/>
<path d="M6932 7499 c7 -23 125 -107 168 -120 83 -25 51 20 -62 88 -63 38
-113 53 -106 32z"/>
<path d="M8090 7447 c0 -20 59 -86 91 -102 46 -24 38 6 -17 65 -46 49 -74 63
-74 37z"/>
<path d="M8272 7228 c2 -23 9 -34 22 -36 31 -6 38 12 16 41 -29 36 -42 34 -38
-5z"/>
<path d="M7262 6698 c5 -14 106 -88 120 -88 16 0 -45 71 -73 86 -34 17 -52 18
-47 2z"/>
<path d="M7270 6259 c0 -35 118 -280 141 -295 22 -14 -29 126 -88 239 -33 61
-53 83 -53 56z"/>
<path d="M7483 4634 c-62 -31 -55 -84 11 -84 69 1 170 60 151 89 -10 17 -126
13 -162 -5z"/>
<path d="M8318 4573 c-64 -55 -87 -79 -75 -81 45 -9 187 100 187 143 0 26 -17
17 -112 -62z"/>
<path d="M4630 2595 c0 -57 15 -76 21 -27 6 39 -1 82 -12 82 -5 0 -9 -25 -9
-55z"/>
<path d="M4810 2533 c1 -26 37 -103 50 -103 16 0 12 27 -10 70 -23 45 -40 59
-40 33z"/>
<path d="M4880 2341 c0 -62 121 -243 201 -301 41 -30 69 -38 69 -21 0 14 -47
78 -113 154 -35 40 -82 101 -106 135 -23 34 -44 62 -46 62 -3 0 -5 -13 -5 -29z"/>
<path d="M328 2330 c-116 -14 -112 -38 8 -39 69 -1 266 16 304 26 60 16 -194
26 -312 13z"/>
<path d="M4255 2098 c-22 -32 -55 -143 -55 -187 0 -39 25 -85 41 -76 5 4 9 27
9 53 0 26 9 85 20 132 11 47 20 88 20 93 0 15 -19 6 -35 -15z"/>
<path d="M4038 1980 c-21 -19 -28 -30 -18 -30 20 0 80 37 80 50 0 19 -30 10
-62 -20z"/>
<path d="M590 1965 c0 -8 74 -55 87 -55 16 0 17 32 1 48 -11 11 -88 18 -88 7z"/>
<path d="M3931 1876 c-21 -25 -36 -132 -23 -161 19 -42 91 -26 118 26 19 38
18 41 -13 37 -26 -3 -28 0 -33 42 -8 67 -24 86 -49 56z"/>
<path d="M4340 1784 c0 -50 37 -110 108 -177 54 -49 97 -75 109 -63 4 3 -30
44 -75 89 -45 45 -95 107 -111 137 l-31 55 0 -41z"/>
<path d="M3841 1792 c-16 -30 -22 -86 -12 -117 l8 -30 13 30 c17 44 25 135 12
135 -6 0 -16 -8 -21 -18z"/>
<path d="M4002 1477 c-23 -126 -12 -210 33 -247 22 -18 36 3 30 45 -2 17 -12
80 -21 140 -9 61 -20 113 -24 118 -3 4 -12 -21 -18 -56z"/>
<path d="M2690 1501 c-138 -8 -166 -26 -234 -155 -36 -68 -34 -92 8 -113 48
-22 78 -11 120 45 46 63 113 125 151 139 17 6 51 14 77 18 28 4 63 18 89 37
41 29 42 30 35 7 -21 -76 -21 -79 13 -79 18 0 46 7 62 16 24 12 30 21 27 42
-6 52 -60 59 -348 43z"/>
<path d="M123 1408 c-86 -102 -123 -157 -123 -182 0 -16 2 -17 16 -5 13 11
145 201 178 257 18 31 -7 6 -71 -70z"/>
<path d="M10350 1435 c58 -14 133 -35 168 -47 50 -17 65 -19 75 -9 33 34 -65
61 -273 76 l-75 5 105 -25z"/>
<path d="M825 1436 l-30 -13 25 -13 c34 -19 216 -19 249 -1 24 13 24 14 6 27
-25 18 -208 18 -250 0z"/>
<path d="M1168 1442 c-23 -5 -24 -48 -1 -56 13 -5 14 -9 4 -19 -8 -8 -68 -14
-184 -17 l-172 -5 54 -18 c125 -39 421 -10 421 42 0 35 -80 83 -122 73z"/>
<path d="M9056 1081 c-14 -22 130 -51 259 -51 115 0 84 17 -76 40 -150 22
-175 24 -183 11z"/>
<path d="M8070 1010 c0 -5 23 -10 50 -10 28 0 50 5 50 10 0 6 -22 10 -50 10
-27 0 -50 -4 -50 -10z"/>
<path d="M9540 1010 c17 -11 131 -11 175 0 20 5 -8 8 -80 9 -74 0 -105 -2 -95
-9z"/>
<path d="M1493 983 c-7 -2 -13 -9 -13 -14 0 -12 87 -12 94 0 10 15 -52 26 -81
14z"/>
<path d="M1703 983 c-24 -9 -13 -34 22 -49 82 -34 160 2 85 41 -28 14 -82 19
-107 8z"/>
<path d="M2092 983 c-23 -9 -1 -23 39 -23 42 0 53 14 17 24 -26 7 -38 7 -56
-1z"/>
<path d="M8314 955 c-7 -19 -14 -61 -14 -93 0 -32 -3 -62 -7 -65 -4 -4 -19 4
-34 19 l-27 26 -16 -56 c-9 -31 -14 -61 -11 -65 3 -5 21 -4 41 2 31 9 38 9 49
-6 19 -26 22 -22 29 38 11 95 27 153 52 190 13 20 24 38 24 40 0 3 -16 5 -36
5 -31 0 -37 -4 -50 -35z"/>
<path d="M9957 983 c-16 -15 -5 -23 33 -23 43 0 54 14 18 24 -30 8 -43 7 -51
-1z"/>
<path d="M10177 983 c-16 -15 -5 -23 33 -23 43 0 54 14 18 24 -30 8 -43 7 -51
-1z"/>
<path d="M1970 900 c0 -6 30 -10 70 -10 40 0 70 4 70 10 0 6 -30 10 -70 10
-40 0 -70 -4 -70 -10z"/>
<path d="M9220 900 c0 -5 21 -10 46 -10 27 0 43 4 39 10 -3 6 -24 10 -46 10
-21 0 -39 -4 -39 -10z"/>
<path d="M2257 873 c-31 -8 -7 -23 38 -23 48 0 68 14 32 24 -24 6 -43 6 -70
-1z"/>
<path d="M9612 873 c-23 -9 -1 -23 38 -23 44 0 61 15 27 24 -25 7 -47 7 -65
-1z"/>
<path d="M8450 761 c0 -24 8 -48 21 -65 42 -53 53 -16 18 59 -26 55 -39 57
-39 6z"/>
<path d="M9480 760 c-10 -7 14 -9 75 -9 60 1 82 4 65 9 -36 11 -122 11 -140 0z"/>
<path d="M9865 720 c-4 -6 22 -10 69 -10 44 0 76 4 76 10 0 6 -30 10 -69 10
-39 0 -73 -4 -76 -10z"/>
<path d="M10208 693 c-16 -2 -28 -9 -28 -14 0 -12 117 -12 125 1 3 6 -5 10
-19 10 -13 0 -30 2 -38 3 -7 2 -25 2 -40 0z"/>
<path d="M8660 458 c-77 -26 -295 -135 -311 -155 -13 -15 -11 -16 21 -10 36 7
300 135 334 162 30 23 16 24 -44 3z"/>
<path d="M8905 470 c-18 -5 21 -8 100 -8 94 0 119 3 90 9 -49 10 -149 9 -190
-1z"/>
<path d="M9157 363 c-16 -15 -5 -23 33 -23 22 0 40 4 40 9 0 17 -59 29 -73 14z"/>
<path d="M9005 300 c-34 -22 -146 -50 -200 -50 -22 0 -34 -4 -30 -10 16 -26
262 2 293 34 18 18 9 46 -15 45 -10 0 -31 -9 -48 -19z"/>
<path d="M8178 286 c-110 -39 -238 -119 -238 -148 0 -12 52 -10 89 3 39 14 48
7 33 -26 -7 -15 -8 -25 -2 -25 18 0 49 39 56 67 10 50 28 74 70 99 52 31 72
30 80 -1 8 -32 24 -22 24 15 0 25 -15 41 -38 40 -4 0 -37 -11 -74 -24z"/>
<path d="M9160 280 c0 -6 28 -10 65 -10 37 0 65 4 65 10 0 6 -28 10 -65 10
-37 0 -65 -4 -65 -10z"/>
<path d="M10690 265 c-96 -78 -240 -232 -240 -257 0 -12 216 -3 266 11 26 7
24 9 -26 15 -30 4 -75 10 -98 13 l-44 6 70 71 c81 83 115 130 110 153 -2 13
-9 11 -38 -12z"/>
<path d="M10305 245 c-99 -53 -215 -145 -215 -171 0 -16 26 -31 86 -49 l45
-13 -7 33 c-8 44 13 77 87 138 98 79 100 113 4 62z"/>
<path d="M6335 245 c30 -12 392 -35 595 -39 223 -5 231 -5 158 9 -144 25 -291
35 -527 34 -130 0 -231 -2 -226 -4z"/>
<path d="M6400 181 c-33 -6 -34 -7 -10 -14 36 -10 123 -8 140 3 12 8 12 10 -5
10 -11 0 -36 2 -55 4 -19 2 -51 1 -70 -3z"/>
<path d="M9235 181 l-40 -7 54 -5 c30 -2 79 -2 110 1 l56 5 -49 8 c-53 8 -71
7 -131 -2z"/>
<path d="M8310 141 c24 -14 198 -51 236 -51 50 0 42 30 -11 46 -46 14 -248 18
-225 5z"/>
<path d="M9567 70 c-42 -8 -52 -14 -43 -28 12 -20 105 -23 227 -7 154 20 175
25 157 36 -16 10 -287 10 -341 -1z"/>
</g>
</svg>
