<?xml version="1.0" standalone="no"?>
<!DOCTYPE svg PUBLIC "-//W3C//DTD SVG 20010904//EN"
 "http://www.w3.org/TR/2001/REC-SVG-20010904/DTD/svg10.dtd">
<svg version="1.0" xmlns="http://www.w3.org/2000/svg"
 width="948.000000pt" height="1280.000000pt" viewBox="0 0 948.000000 1280.000000"
 preserveAspectRatio="xMidYMid meet">
<metadata>
Created by potrace 1.15, written by Peter Selinger 2001-2017
</metadata>
<g transform="translate(0.000000,1280.000000) scale(0.100000,-0.100000)"
fill="#000000" stroke="none">
<path d="M4353 12792 c-19 -12 -32 -56 -49 -161 -16 -105 -40 -164 -66 -169
-9 -2 -33 15 -54 38 -27 29 -40 37 -46 28 -15 -24 -9 -201 8 -252 20 -59 9
-77 -33 -55 -38 20 -108 120 -122 174 -13 50 -34 65 -97 65 -36 0 -63 20 -95
69 l-15 24 -125 -12 c-167 -16 -213 -26 -257 -56 -20 -14 -43 -25 -50 -25 -8
0 -33 16 -55 36 -67 57 -159 98 -204 91 -77 -13 -85 -75 -19 -141 35 -35 55
-47 102 -57 108 -24 158 -76 118 -120 -15 -17 -26 -20 -59 -15 -58 9 -168 65
-260 131 -82 59 -113 75 -146 75 -14 0 3 -20 58 -72 82 -79 136 -145 127 -159
-9 -15 -54 -10 -154 16 -52 14 -110 25 -128 25 -49 0 -35 -22 24 -38 73 -19
134 -43 134 -51 0 -4 -18 -14 -40 -21 -46 -15 -65 -34 -54 -52 4 -6 7 -48 6
-92 -2 -66 1 -87 18 -114 28 -45 60 -58 108 -44 34 11 42 9 110 -25 73 -37 84
-51 58 -73 -12 -9 -18 -7 -33 9 -22 27 -57 27 -122 -1 l-52 -21 -147 32 c-81
18 -155 29 -165 25 -22 -8 -40 -41 -31 -55 3 -6 20 -10 38 -9 50 3 59 1 94
-20 l33 -21 -30 -28 c-22 -20 -31 -38 -31 -60 0 -36 10 -34 -156 -31 -83 1
-134 -2 -138 -8 -8 -14 -1 -16 199 -52 94 -17 180 -38 192 -46 31 -20 41 -63
19 -79 -9 -7 -25 -11 -34 -8 -10 2 -31 -1 -47 -7 l-30 -12 22 -17 c12 -10 44
-21 72 -24 28 -3 59 -10 68 -15 14 -8 12 -12 -13 -24 -43 -22 -83 -28 -256
-38 -86 -4 -163 -12 -170 -16 -17 -11 108 -33 192 -33 36 -1 120 6 185 14 167
21 325 19 325 -4 0 -13 -96 -42 -181 -56 -68 -11 -108 -25 -209 -77 -69 -35
-162 -80 -207 -101 -93 -42 -122 -73 -105 -111 11 -24 67 -56 100 -56 11 0 25
7 32 15 10 12 8 17 -13 26 -28 13 -39 32 -31 53 7 17 214 99 334 132 52 14
125 39 162 55 71 31 152 47 161 32 6 -10 -8 -77 -30 -141 -21 -59 -9 -70 56
-53 53 13 83 6 94 -24 20 -49 -169 -130 -331 -142 -87 -6 -107 -17 -77 -40 40
-28 209 -8 318 38 27 11 61 19 75 17 24 -3 27 -8 30 -45 3 -35 -1 -44 -22 -58
-14 -9 -56 -21 -93 -25 -37 -5 -90 -16 -118 -24 -66 -21 -84 -20 -139 5 -63
27 -120 23 -124 -9 -2 -13 1 -36 8 -51 10 -25 5 -41 -57 -166 -60 -122 -74
-143 -115 -173 -27 -18 -48 -40 -48 -48 0 -7 16 -20 35 -28 46 -20 50 -41 30
-176 -19 -128 -16 -138 39 -120 39 13 56 35 56 74 0 27 36 74 60 77 38 4 51
-4 70 -42 16 -31 24 -38 34 -30 10 8 17 7 26 -4 19 -23 5 -47 -25 -39 -34 8
-55 -11 -55 -52 0 -54 -15 -81 -54 -94 -20 -6 -36 -15 -36 -20 0 -16 44 -40
71 -40 41 0 58 -10 75 -42 l15 -29 82 7 c75 6 90 4 175 -25 51 -17 95 -31 96
-31 10 0 37 88 40 129 5 55 31 70 42 24 4 -15 15 -45 25 -67 16 -37 16 -40 -3
-83 -16 -36 -18 -50 -9 -69 14 -32 56 -47 111 -40 35 5 52 1 75 -14 17 -11 47
-20 67 -20 21 0 58 -7 83 -15 25 -9 50 -13 55 -10 24 15 75 -11 136 -67 67
-63 77 -80 44 -71 -21 6 -70 -21 -70 -38 0 -6 47 -60 105 -119 l105 -109 0
-77 c0 -61 4 -84 22 -112 21 -35 21 -36 5 -116 -10 -45 -17 -100 -17 -124 0
-86 -41 -130 -133 -142 -75 -9 -120 -28 -125 -52 -2 -10 11 -31 30 -47 28 -26
31 -32 18 -41 -24 -17 -70 -3 -111 35 -21 19 -60 45 -86 59 -27 13 -76 53
-109 89 -50 53 -78 74 -155 110 -62 30 -113 63 -148 97 -38 36 -59 49 -70 44
-68 -30 -124 -7 -141 57 -15 54 -82 121 -117 117 -15 -2 -28 -8 -30 -14 -2 -6
17 -39 43 -73 l47 -63 -11 -50 c-7 -27 -12 -63 -12 -79 0 -42 -17 -69 -43 -69
-21 0 -60 29 -187 137 -33 29 -77 57 -98 62 -51 15 -242 158 -329 249 -48 49
-78 72 -88 68 -21 -8 -19 -27 9 -96 14 -33 21 -62 17 -64 -4 -3 -29 1 -56 9
-64 20 -84 19 -123 -5 -30 -19 -54 -21 -277 -24 -164 -3 -256 -9 -280 -17 -29
-11 -46 -11 -93 0 -125 28 -138 27 -172 -9 -17 -19 -34 -46 -37 -62 -3 -16 -9
-31 -14 -34 -17 -10 -49 17 -57 48 -7 27 -15 35 -53 45 -26 8 -81 12 -134 11
-110 -4 -116 -14 -55 -93 23 -30 40 -61 37 -69 -3 -8 -36 -24 -74 -37 -37 -12
-106 -40 -153 -61 -68 -32 -103 -41 -176 -48 -156 -15 -352 -76 -326 -102 15
-15 252 31 344 67 75 29 62 -30 -25 -118 -70 -71 -100 -83 -238 -94 -43 -3
-79 -9 -79 -12 0 -3 37 -22 83 -41 62 -27 83 -41 85 -57 5 -31 -51 -89 -101
-105 -48 -15 -56 -35 -29 -68 l19 -23 82 16 c102 21 171 22 171 3 0 -35 -80
-60 -197 -61 -53 0 -94 -4 -95 -10 -2 -5 23 -23 54 -39 71 -36 89 -70 65 -121
-17 -36 -32 -43 -101 -47 -47 -3 -56 -20 -21 -36 14 -6 25 -18 25 -26 0 -30
19 -25 63 18 40 39 92 65 104 52 2 -2 -3 -18 -12 -36 -9 -17 -20 -57 -25 -87
-10 -62 -28 -86 -80 -113 -32 -16 -184 -61 -252 -75 -33 -6 -37 -34 -10 -58 9
-8 44 -27 76 -41 l59 -26 27 25 c35 33 56 32 81 -7 18 -29 20 -44 15 -116 -5
-82 -5 -83 17 -76 52 17 62 12 60 -31 -1 -22 -15 -74 -31 -115 -50 -125 -52
-251 -4 -258 15 -2 28 8 48 38 32 48 58 50 62 4 2 -24 -2 -33 -25 -44 -45 -23
-73 -52 -73 -77 0 -31 24 -30 66 2 45 34 57 32 74 -17 9 -25 25 -47 39 -54 13
-7 28 -18 32 -26 5 -7 9 -75 9 -150 0 -147 9 -192 38 -186 27 5 39 60 49 228
9 143 12 160 40 215 38 74 66 110 80 102 6 -4 14 -24 18 -44 8 -46 21 -63 46
-63 21 0 23 7 37 133 13 123 48 155 72 66 23 -84 60 -59 131 86 26 55 78 189
115 298 37 110 72 203 78 208 20 17 128 69 142 69 24 0 16 -33 -26 -100 -22
-36 -40 -68 -40 -72 0 -4 21 -18 47 -30 77 -37 82 -55 49 -187 -35 -144 -38
-195 -11 -199 11 -1 26 2 33 6 7 5 26 76 43 158 36 175 50 214 77 214 11 0 23
-8 26 -17 4 -9 -5 -86 -20 -170 -26 -155 -26 -183 -1 -183 28 0 45 37 66 142
34 168 68 251 180 440 56 94 83 123 107 114 13 -5 16 -16 12 -49 -7 -60 -82
-221 -129 -277 -43 -51 -47 -65 -23 -74 14 -6 40 16 83 69 23 28 32 3 46 -120
11 -107 25 -149 41 -132 4 4 10 67 13 140 5 100 11 140 23 159 20 30 80 80
157 132 90 61 106 43 41 -44 -40 -54 -48 -74 -31 -84 19 -12 41 7 52 44 13 44
64 110 84 110 27 0 26 -40 -4 -167 -41 -175 -51 -238 -54 -328 -2 -64 1 -79
16 -90 35 -26 47 -8 47 67 0 52 18 149 69 367 73 311 97 391 120 399 12 4 13
-10 8 -79 -4 -46 -13 -106 -22 -133 -19 -61 -19 -61 1 -80 22 -23 39 -20 79
15 34 30 35 34 35 100 0 61 3 73 25 94 13 14 33 25 45 25 13 0 25 10 33 28 16
37 25 42 80 42 61 0 59 -16 -7 -48 -38 -19 -51 -32 -67 -69 -11 -25 -17 -48
-15 -50 12 -12 50 13 87 57 47 56 114 104 135 96 20 -8 17 -36 -11 -92 -35
-71 -102 -140 -164 -172 -30 -15 -56 -33 -58 -39 -3 -7 21 -12 61 -15 46 -3
74 -10 93 -25 25 -18 28 -27 28 -79 0 -48 -11 -85 -53 -192 -51 -128 -60 -171
-36 -179 14 -5 73 88 81 127 7 35 37 65 58 57 23 -10 18 -36 -15 -74 -16 -18
-30 -42 -30 -53 0 -11 -14 -36 -32 -55 l-31 -36 22 -46 22 -46 -23 -24 c-19
-21 -24 -39 -29 -121 -4 -53 -7 -137 -8 -187 -1 -83 -4 -97 -41 -175 -22 -47
-40 -92 -40 -101 0 -24 33 -49 63 -49 31 0 67 48 67 88 0 42 36 92 66 92 13 0
0 -111 -26 -210 -88 -333 -113 -519 -92 -674 18 -138 53 -187 106 -152 26 16
72 84 63 92 -3 3 -22 -2 -43 -11 -60 -25 -69 -9 -66 118 3 138 22 386 32 412
8 21 65 45 109 45 27 0 28 -34 1 -75 -36 -54 -19 -154 43 -265 37 -66 77 -177
77 -215 0 -38 42 -95 69 -95 38 0 52 -24 62 -105 6 -44 14 -84 18 -88 5 -5 25
12 46 37 21 25 41 46 45 46 5 0 22 -24 38 -52 15 -29 43 -75 60 -103 27 -43
34 -66 45 -160 11 -99 15 -110 33 -113 41 -6 56 40 35 105 -18 53 -7 68 53 77
28 4 52 16 67 32 71 76 149 70 149 -11 0 -24 2 -25 34 -20 41 8 51 -10 35 -67
-7 -29 -7 -66 2 -136 14 -113 21 -132 53 -132 25 0 46 34 46 74 0 13 8 34 19
47 16 20 22 22 44 12 38 -18 45 -57 56 -344 6 -141 20 -328 31 -415 38 -296
111 -798 130 -889 10 -49 28 -157 40 -240 12 -82 34 -206 50 -275 107 -464
147 -848 121 -1165 -7 -77 -15 -153 -18 -170 -8 -38 -123 -155 -152 -155 -32
0 -26 14 24 54 25 21 48 48 51 62 9 34 -4 94 -20 94 -8 0 -44 -21 -80 -46 -37
-25 -97 -61 -134 -80 -37 -18 -130 -80 -207 -136 l-140 -103 -125 -6 c-69 -4
-144 -8 -167 -8 -30 -1 -43 -5 -43 -15 0 -20 25 -37 83 -56 39 -13 52 -22 50
-36 -1 -10 -85 -98 -187 -196 -101 -98 -194 -193 -205 -212 -25 -41 -28 -86
-5 -86 26 0 70 36 251 207 95 89 200 185 234 213 77 64 144 99 160 83 18 -18
-15 -56 -198 -225 -293 -271 -325 -294 -432 -314 -62 -11 -69 -16 -111 -65
-25 -29 -78 -85 -117 -125 -72 -70 -85 -98 -61 -122 22 -22 43 -13 169 70 68
44 205 133 304 196 99 63 230 149 290 191 112 78 153 101 182 101 35 0 181 82
241 134 109 96 144 72 147 -102 3 -111 10 -145 29 -139 22 7 46 77 66 191 32
184 79 288 133 294 17 2 29 -2 33 -11 3 -8 -11 -79 -30 -157 -36 -143 -44
-210 -27 -210 13 0 20 11 56 90 16 36 62 124 102 195 39 72 80 154 90 183 18
53 18 54 -2 69 -31 23 -139 12 -171 -18 -30 -28 -38 -21 -30 25 5 24 18 44 41
62 20 15 45 43 56 64 12 22 41 49 70 66 58 34 61 57 10 91 -44 30 -66 29 -104
-3 -27 -23 -31 -24 -46 -10 -14 15 -14 22 4 79 15 48 19 89 18 182 -1 136 -35
486 -60 617 -9 49 -13 91 -10 94 12 12 34 -16 51 -64 30 -83 45 -112 59 -112
35 0 62 148 54 290 -3 52 -35 271 -71 485 -70 419 -87 547 -110 835 -25 297
-36 529 -36 734 0 223 5 239 65 244 55 5 95 -19 125 -76 29 -54 49 -60 64 -17
6 17 26 57 45 89 32 55 35 67 41 175 9 158 29 191 81 135 36 -38 34 -144 -4
-238 -17 -43 -25 -72 -19 -78 18 -18 80 51 117 130 51 107 85 142 85 87 0 -36
40 -72 86 -80 78 -12 84 -15 90 -41 9 -37 -10 -71 -51 -88 -19 -8 -35 -19 -35
-24 0 -15 40 -22 66 -12 73 28 118 251 78 390 -34 123 -36 170 -5 170 37 0 91
-88 91 -147 0 -15 -9 -48 -21 -72 -15 -34 -17 -46 -7 -52 34 -22 73 38 83 128
4 33 11 67 16 74 14 23 50 -22 65 -82 12 -45 12 -56 -1 -82 -23 -45 -19 -55
29 -78 48 -22 96 -76 96 -106 0 -10 -7 -29 -16 -42 -16 -22 -15 -24 19 -59 38
-40 43 -53 57 -137 5 -31 20 -80 34 -108 l24 -52 4 -417 c4 -417 4 -417 26
-441 37 -40 45 -130 38 -427 -23 -974 -17 -1372 24 -1487 33 -93 24 -153 -21
-153 -10 0 -44 22 -75 50 -59 52 -62 53 -129 50 -66 -2 -116 -22 -157 -61 -75
-71 -40 -136 93 -175 30 -9 75 -29 101 -46 46 -29 118 -100 118 -117 0 -4 18
-16 41 -26 22 -10 63 -36 91 -57 29 -21 63 -38 76 -38 14 0 50 -14 80 -31 l54
-30 51 21 c46 20 57 21 126 11 42 -6 121 -15 176 -21 155 -18 260 -46 368
-101 61 -30 110 -49 132 -49 l35 0 -22 41 c-16 31 -19 46 -11 58 15 24 73 25
134 2 66 -25 115 -27 127 -5 17 30 1 54 -62 96 -106 72 -191 139 -191 151 0
14 185 17 224 4 28 -9 61 0 61 17 0 6 -19 17 -42 23 -24 7 -68 28 -98 48 -96
62 -190 90 -350 105 -53 5 -129 20 -172 34 -67 22 -84 24 -129 16 -114 -22
-192 -13 -373 43 -220 68 -210 55 -190 246 9 78 24 175 35 215 11 39 24 103
29 141 4 39 19 95 31 125 22 51 23 68 23 235 -1 176 -3 201 -65 685 -8 57 -13
234 -14 445 -1 301 -3 354 -17 380 -38 72 -66 341 -75 734 l-6 273 37 32 c47
39 57 80 39 161 l-14 59 41 91 c66 145 66 145 94 61 10 -31 22 -56 26 -56 4 0
17 16 29 35 21 37 38 44 47 22 3 -8 8 -57 12 -111 4 -53 12 -97 17 -98 25 -3
34 58 43 317 6 149 13 278 17 287 10 25 25 12 25 -20 0 -15 16 -75 36 -132 36
-104 48 -198 31 -245 -4 -11 -3 -27 3 -35 8 -13 11 -13 25 0 29 29 46 148 52
350 4 170 2 210 -16 310 -12 63 -21 139 -20 170 l1 55 17 -49 c20 -59 33 -66
50 -30 16 36 22 112 25 324 2 96 6 190 11 208 5 24 2 45 -14 82 -25 59 -27
115 -5 171 16 40 16 43 -5 86 l-22 46 32 33 33 34 -28 83 c-16 45 -44 107 -62
137 -40 67 -59 118 -85 230 -25 115 -25 115 21 134 64 25 95 21 124 -16 25
-34 109 -201 138 -275 17 -45 38 -57 38 -22 0 52 -36 171 -73 242 -55 103
-155 227 -214 266 -92 58 -95 61 -82 77 15 18 109 19 152 0 45 -19 72 -52 97
-117 36 -97 108 -179 145 -165 22 8 19 38 -11 107 -28 69 -29 126 -1 143 38
24 78 -33 129 -184 28 -83 32 -109 32 -202 1 -117 11 -137 49 -99 15 14 19 31
17 72 -3 94 -1 111 15 135 20 31 50 30 71 -1 20 -31 50 -32 80 -4 37 34 63 19
116 -66 26 -42 55 -78 65 -82 9 -4 33 3 54 15 21 12 42 22 48 22 6 0 24 -20
41 -45 43 -63 65 -73 102 -45 16 12 45 24 64 27 20 3 38 12 41 20 3 8 -9 46
-27 84 -19 38 -31 72 -27 75 4 4 26 -9 49 -28 60 -48 67 -51 83 -38 24 20 19
67 -10 86 -35 23 -31 54 10 94 34 33 35 33 49 14 8 -10 28 -57 45 -104 29 -81
38 -113 60 -205 8 -38 9 -36 10 32 1 80 15 128 34 120 6 -3 39 -17 72 -31 39
-16 70 -37 90 -62 68 -84 92 -104 127 -104 42 0 51 -7 73 -50 52 -104 99 -91
70 20 -13 51 -13 57 5 88 20 33 20 33 0 72 -11 22 -20 46 -20 55 0 9 -10 33
-22 54 -25 43 -20 68 17 77 40 10 89 -4 121 -35 16 -16 58 -77 93 -135 35 -59
91 -137 123 -173 32 -36 58 -74 58 -83 0 -18 63 -80 81 -80 19 0 21 30 5 77
-28 81 -17 153 24 153 26 0 145 -150 182 -228 16 -35 45 -88 65 -118 l36 -54
-18 -41 c-23 -49 -13 -73 32 -77 24 -2 41 6 77 37 55 48 79 51 103 15 16 -25
42 -127 43 -166 0 -26 -29 -22 -80 12 -25 16 -48 30 -52 30 -20 0 -4 -34 32
-74 101 -109 180 -91 180 41 0 64 -25 152 -76 270 -48 111 -49 118 -32 174 9
30 8 48 -1 80 -15 49 -7 59 50 59 59 0 90 -45 103 -152 8 -64 15 -73 53 -63
28 7 28 5 -1 140 -9 39 -21 135 -26 215 -10 132 -19 181 -82 443 -10 43 -71
115 -126 149 -32 20 -36 20 -47 4 -11 -15 -13 -15 -19 0 -3 8 -6 36 -6 60 0
39 5 50 41 84 l40 38 -17 34 c-52 100 -166 229 -276 310 -51 37 -170 144 -263
237 -116 115 -180 172 -200 177 -17 3 -59 22 -94 42 -58 32 -72 35 -181 42
-112 8 -122 10 -177 44 -32 19 -90 44 -128 54 -39 11 -91 29 -115 40 -68 31
-131 37 -172 18 -34 -16 -35 -16 -104 22 -39 21 -90 52 -114 69 -52 35 -105
63 -120 63 -5 0 -10 -11 -10 -25 0 -20 9 -29 44 -45 50 -24 99 -70 74 -70 -8
0 -35 9 -59 19 -24 11 -80 25 -124 31 -101 14 -267 10 -272 -7 -3 -8 11 -15
39 -19 32 -5 52 -17 80 -46 35 -38 39 -40 106 -41 53 -2 75 -7 91 -21 12 -11
21 -23 21 -27 0 -31 -155 -75 -206 -60 -16 5 -60 29 -97 55 -38 25 -77 46 -87
46 -10 0 -47 13 -82 30 -69 33 -114 38 -143 16 -17 -12 -18 -18 -8 -51 7 -20
9 -43 7 -50 -7 -18 -47 -32 -134 -46 -102 -16 -112 -21 -135 -65 -25 -48 -63
-56 -124 -25 -22 12 -48 21 -57 21 -10 0 -37 -21 -62 -46 l-44 -47 61 -58 c90
-85 82 -117 -20 -74 -40 17 -75 25 -102 23 -36 -3 -42 -7 -49 -33 -7 -28 -15
-33 -80 -53 -51 -15 -85 -32 -111 -57 -41 -38 -59 -41 -136 -23 -61 14 -78 3
-83 -50 -3 -34 -6 -37 -45 -45 -24 -4 -43 -13 -43 -18 0 -17 47 -104 66 -121
11 -9 32 -18 48 -20 16 -1 31 -9 34 -15 6 -19 -27 -28 -49 -15 -28 18 -40 15
-93 -19 l-48 -30 -24 22 c-13 12 -47 57 -75 100 -28 44 -58 79 -65 79 -22 0
-17 -57 7 -90 18 -24 21 -38 16 -84 -7 -73 -51 -169 -95 -207 -43 -38 -63 -36
-178 21 -101 49 -144 94 -144 150 0 30 -9 51 -36 87 -20 26 -65 104 -100 175
-75 150 -80 182 -33 235 33 38 34 60 5 77 -15 9 -22 6 -40 -18 -51 -70 -54
-72 -73 -60 -27 17 -28 58 -1 88 13 14 68 51 122 81 54 31 112 67 129 81 22
18 35 23 51 17 11 -4 55 -8 97 -8 67 0 80 3 112 28 26 19 40 41 49 75 l14 47
56 -3 c41 -3 66 2 96 17 23 12 51 21 62 21 29 0 61 18 83 47 14 17 27 23 46
21 24 -3 26 -6 26 -53 0 -44 3 -50 22 -53 12 -2 35 9 55 26 18 16 50 37 70 45
20 9 43 28 52 44 8 15 37 50 65 78 28 27 51 54 51 61 0 21 38 46 79 51 l41 6
0 51 c-1 108 -17 185 -49 235 -38 58 -38 71 -6 101 14 13 25 27 25 32 0 4 -11
8 -25 8 -35 0 -70 36 -54 56 17 20 58 17 109 -8 62 -32 74 -61 76 -191 2 -83
6 -113 18 -126 9 -10 16 -25 16 -34 0 -9 4 -18 9 -21 24 -15 29 245 6 342 -19
78 -38 116 -84 167 -20 22 -57 79 -81 126 l-44 87 37 48 c20 26 37 57 37 68 0
12 -18 49 -40 84 -50 78 -54 103 -20 112 27 7 29 25 14 99 -5 23 -3 36 7 42
23 15 75 10 129 -11 87 -34 139 -23 106 23 -9 12 -23 32 -32 45 -26 35 -6 88
51 135 68 57 56 114 -28 136 -25 6 -60 25 -78 42 -32 30 -33 32 -14 45 37 27
158 9 186 -27 l18 -24 3 39 c3 41 7 44 81 60 43 10 34 39 -35 115 -35 38 -72
83 -83 102 -11 18 -40 46 -64 63 -59 42 -77 69 -56 86 12 10 16 9 21 -6 18
-48 64 -70 92 -42 32 32 -4 78 -59 78 -19 0 -40 5 -47 12 -18 18 -14 89 6 119
94 140 118 179 143 235 32 70 37 125 13 144 -22 19 -35 2 -79 -99 -49 -112
-88 -174 -136 -215 -46 -39 -83 -49 -133 -35 -51 14 -50 45 4 59 23 6 61 30
91 58 45 42 51 52 45 75 -9 37 -47 36 -120 -3 l-56 -30 6 27 c15 61 27 80 84
134 47 44 60 62 60 85 0 36 -16 54 -47 54 -17 0 -24 -7 -29 -27 -3 -16 -8 -35
-10 -45 -3 -9 -50 -52 -106 -97 -80 -65 -108 -81 -134 -81 -41 0 -49 -12 -24
-35 28 -25 25 -52 -10 -86 -23 -24 -34 -28 -57 -23 -15 4 -34 12 -42 19 -12
11 -10 18 8 41 17 22 21 40 21 103 0 42 7 103 15 136 20 77 73 175 102 188 44
20 42 87 -3 87 -47 0 -100 -82 -125 -194 -9 -41 -21 -66 -42 -85 -16 -14 -39
-35 -51 -47 -20 -18 -23 -28 -19 -70 6 -63 -13 -86 -52 -60 -41 27 -80 21
-110 -18 -33 -43 -129 -96 -145 -80 -14 14 6 58 40 89 28 26 60 88 60 118 0
13 -6 32 -14 42 -13 18 -17 17 -107 -28 -52 -26 -99 -47 -105 -47 -8 0 -8 12
-1 44 5 24 7 60 3 80 l-7 37 -33 -25 c-19 -14 -53 -33 -77 -42 -61 -24 -98
-61 -105 -105 -4 -23 -18 -48 -35 -65 -27 -25 -31 -27 -45 -12 -21 21 -6 74
34 126 16 20 39 56 50 79 12 23 45 72 73 110 77 100 108 180 78 198 -17 11
-55 -32 -111 -127 -28 -49 -85 -125 -126 -169 -83 -89 -62 -82 -192 -63 l-39
6 6 -50 c4 -39 1 -60 -15 -94 -11 -24 -23 -65 -27 -93 -4 -27 -20 -73 -36
-101 -34 -61 -35 -68 -9 -101 21 -27 26 -68 11 -91 -5 -8 -21 -12 -37 -10 -21
2 -34 12 -47 38 -16 30 -17 50 -12 139 8 120 13 137 54 179 34 33 38 57 20
127 -14 54 -6 89 26 121 19 19 31 23 51 18 l26 -7 -4 116 c-2 94 -6 120 -20
134 -26 25 -37 8 -46 -71 -10 -78 -39 -119 -70 -100 -14 10 -17 28 -17 118 0
91 3 110 18 120 23 17 22 43 -2 56 -23 12 -32 12 -48 2z m-1136 -307 c29 -30
53 -59 53 -65 0 -18 -39 -11 -98 19 -69 35 -98 63 -80 78 44 35 66 29 125 -32z
m391 -31 c13 -9 22 -24 22 -39 0 -29 -25 -39 -97 -38 -58 2 -87 14 -103 44 -8
15 -8 24 0 34 22 26 134 25 178 -1z m281 -99 c45 -49 104 -137 115 -172 10
-33 -9 -36 -37 -6 -13 16 -54 60 -91 100 -60 66 -77 99 -59 116 14 15 32 5 72
-38z m499 -40 c4 -82 -3 -107 -31 -103 -29 4 -33 42 -12 114 21 71 39 67 43
-11z m592 -64 c0 -22 -57 -74 -74 -68 -20 7 -18 39 5 63 28 30 69 33 69 5z
m-1198 -48 c19 -17 25 -68 8 -78 -16 -10 -49 14 -56 40 -12 50 13 70 48 38z
m946 -104 c2 -9 -4 -19 -12 -22 -19 -8 -51 17 -42 32 11 17 50 9 54 -10z m326
-26 c12 -31 -34 -154 -68 -182 -12 -10 -23 -9 -60 7 -24 11 -49 30 -56 41 -9
18 -7 22 14 31 13 5 38 29 56 54 45 67 99 90 114 49z m-1218 -4 c10 -12 36
-30 56 -40 24 -12 50 -40 75 -80 21 -33 53 -84 72 -112 44 -67 91 -155 91
-173 0 -27 -32 -14 -84 36 -67 63 -222 294 -235 349 -10 46 -3 51 25 20z m276
-36 c59 -61 108 -144 108 -180 0 -18 -4 -33 -9 -33 -18 0 -159 147 -180 187
-25 50 -25 48 -5 67 19 20 35 12 86 -41z m-1035 -3 c86 -33 173 -86 173 -106
0 -26 -27 -26 -65 0 -21 14 -50 26 -66 26 -72 0 -203 79 -184 110 9 14 49 6
142 -30z m1632 -24 c18 -21 -1 -57 -55 -104 -76 -68 -108 -49 -64 39 38 73 89
101 119 65z m809 -29 c23 -18 12 -42 -40 -87 -139 -121 -209 -175 -269 -210
-94 -56 -114 -112 -59 -165 17 -16 30 -38 30 -50 0 -43 20 -54 105 -57 l80 -3
6 -38 c3 -20 20 -58 38 -82 22 -30 31 -54 29 -72 -8 -68 -151 -101 -203 -48
-15 14 -25 36 -25 52 0 85 -89 212 -159 228 -43 9 -168 -13 -212 -38 -124 -71
-75 115 70 267 58 60 174 148 224 168 11 5 17 18 17 37 0 21 7 35 25 47 30 19
58 11 73 -21 8 -18 20 -25 38 -25 35 0 106 42 128 75 27 41 68 50 104 22z
m-1857 -56 c53 -33 89 -75 89 -103 0 -17 -4 -19 -27 -13 -31 7 -73 42 -73 60
0 7 -18 25 -40 40 -22 15 -40 32 -40 36 0 18 48 8 91 -20z m-276 -65 c16 -11
17 -17 7 -29 -13 -16 -46 -13 -70 6 -11 9 -11 13 4 24 23 17 36 16 59 -1z
m2305 -10 c8 -11 31 -14 85 -13 59 2 78 -2 91 -15 17 -17 16 -18 -22 -34 -45
-19 -204 -54 -249 -54 -16 0 -57 -12 -90 -25 -65 -27 -105 -32 -105 -13 0 6
24 35 53 63 86 84 205 129 237 91z m-804 -17 c3 -6 -18 -36 -49 -67 -31 -32
-60 -69 -66 -83 -5 -14 -24 -102 -42 -195 -30 -157 -34 -171 -63 -199 -17 -16
-46 -38 -64 -47 -18 -9 -36 -28 -42 -42 -5 -13 -35 -60 -67 -104 -32 -44 -66
-93 -75 -111 -23 -43 -52 -40 -84 7 -70 102 -134 214 -134 233 0 20 4 21 46
15 45 -6 47 -5 103 49 32 30 64 55 72 55 9 0 37 -23 63 -50 38 -40 51 -48 62
-39 17 14 8 32 -52 109 -39 50 -64 97 -64 121 0 11 70 12 86 1 6 -4 18 -21 27
-38 9 -17 23 -37 32 -44 22 -18 35 1 35 50 0 20 6 44 14 55 7 11 16 41 19 67
9 69 50 143 95 172 20 13 52 40 70 60 33 36 65 46 78 25z m-1331 -29 c0 -18
-33 -26 -48 -11 -9 9 -8 14 3 21 21 14 45 8 45 -10z m1049 -133 c-22 -68 -62
-147 -74 -147 -16 0 -30 37 -30 82 0 50 38 119 86 157 l29 23 3 -31 c2 -18 -4
-55 -14 -84z m-661 63 c14 -16 33 -51 42 -77 68 -185 146 -262 267 -263 77 0
76 -31 -2 -44 -20 -3 -49 -15 -63 -26 -25 -20 -28 -20 -59 -4 -18 9 -69 43
-114 75 -44 33 -89 59 -98 59 -9 0 -47 -18 -84 -40 -88 -53 -117 -52 -149 9
-26 51 -19 75 25 84 38 8 66 62 56 112 -9 47 12 54 69 21 39 -23 97 -35 97
-20 0 3 -9 24 -19 47 -41 91 -22 131 32 67z m1849 -85 c-3 -31 2 -44 29 -71
53 -55 15 -77 -112 -63 -129 14 -187 28 -216 53 l-27 23 25 16 c13 8 56 20 94
27 39 6 97 22 130 35 33 13 65 22 70 21 6 -2 9 -20 7 -41z m-2529 -45 c26 -16
47 -36 47 -44 0 -25 -38 -39 -89 -31 -59 8 -91 29 -91 58 0 55 61 63 133 17z
m357 9 c0 -10 -31 -12 -55 -3 -11 5 -13 9 -5 14 14 9 60 1 60 -11z m-836 -35
c37 -14 4 -51 -35 -39 -22 7 -25 31 -6 38 18 8 23 8 41 1z m194 -42 c2 -7 -7
-12 -22 -12 -27 0 -35 15 -13 23 17 7 30 3 35 -11z m-93 -111 c0 -22 -32 -38
-46 -24 -9 9 -9 16 1 28 15 19 45 16 45 -4z m663 10 c17 -5 53 -27 78 -48 l47
-37 -43 -37 -42 -36 36 -21 c32 -19 36 -26 36 -64 0 -45 -26 -105 -64 -147
-49 -55 -156 -103 -156 -71 0 6 12 34 27 62 39 75 43 149 9 212 -14 27 -26 55
-26 62 0 7 -25 34 -55 60 -31 26 -52 51 -48 55 19 18 150 24 201 10z m1909
-26 c3 -9 3 -18 1 -21 -8 -8 -58 15 -58 26 0 16 50 12 57 -5z m-2353 -3 c9
-15 -12 -35 -29 -28 -14 5 -15 9 -5 21 14 17 26 19 34 7z m2689 -3 c22 -6 37
-16 37 -25 0 -8 7 -28 15 -44 14 -28 14 -30 -3 -30 -10 0 -23 5 -30 12 -6 6
-37 15 -68 19 -77 10 -143 60 -97 72 34 9 108 7 146 -4z m-1800 -39 c29 -23
232 -322 272 -399 29 -57 55 -149 48 -168 -9 -23 -45 -14 -97 25 -52 39 -123
70 -185 79 -45 7 -93 -18 -125 -68 -54 -81 -41 -114 34 -89 34 11 42 11 64 -4
14 -9 29 -29 32 -44 4 -15 23 -44 42 -64 52 -54 33 -67 -48 -33 -53 22 -66 24
-96 15 -71 -24 -94 -94 -48 -149 l25 -30 52 21 c62 25 247 32 268 11 19 -19
52 -16 112 11 98 43 88 60 -39 69 -116 8 -167 35 -118 61 11 6 41 24 67 40 49
29 49 29 152 10 63 -11 83 37 84 202 l1 81 168 164 c92 91 192 181 222 201
150 98 238 57 248 -117 6 -114 -22 -174 -149 -319 -26 -30 -65 -79 -88 -110
-50 -68 -78 -73 -73 -13 5 53 -17 82 -84 107 -48 18 -62 19 -86 9 -56 -23
-128 -134 -128 -197 0 -51 72 -93 165 -97 33 -2 77 -10 97 -19 66 -28 140 -16
158 26 5 13 14 41 19 63 6 23 44 85 90 147 84 114 151 235 151 274 0 36 33 31
80 -12 l40 -36 35 16 c49 24 90 4 148 -70 25 -33 68 -81 97 -109 70 -68 93
-107 85 -144 -7 -33 9 -53 64 -83 18 -10 29 -22 26 -28 -12 -19 -126 -7 -196
21 -26 10 -149 156 -170 202 -25 56 -49 46 -168 -67 -54 -50 -113 -95 -157
-118 -76 -40 -93 -61 -70 -87 8 -9 21 -33 29 -53 26 -61 67 -70 129 -27 48 34
118 15 118 -32 0 -26 30 -39 88 -39 76 0 138 -26 199 -85 36 -35 66 -55 89
-59 18 -4 34 -11 34 -16 0 -5 -18 -22 -40 -36 -22 -15 -40 -32 -40 -40 0 -7
16 -22 36 -34 48 -30 70 -65 54 -85 -7 -8 -19 -15 -26 -15 -9 0 -14 -11 -14
-30 0 -21 -5 -30 -16 -30 -27 0 -84 31 -105 58 -26 34 -41 18 -47 -51 -6 -70
8 -94 56 -102 55 -9 76 -20 123 -62 42 -38 75 -96 64 -113 -9 -15 -28 -12 -76
10 -60 27 -122 26 -149 -2 -28 -30 -33 -19 -15 32 8 23 15 59 15 79 l0 36 -35
-52 c-19 -28 -53 -63 -76 -76 l-40 -24 26 -7 c64 -16 100 -97 52 -115 -13 -5
-38 -27 -55 -48 -26 -32 -34 -36 -49 -27 -13 8 -19 28 -23 73 -5 67 -23 91
-65 91 -71 0 -53 102 23 125 25 7 36 26 46 75 3 19 16 58 27 85 25 61 15 105
-24 105 -42 0 -105 -55 -131 -114 -13 -30 -47 -84 -75 -121 -28 -36 -51 -73
-51 -82 0 -25 -207 -223 -293 -280 -42 -29 -94 -55 -115 -58 -63 -11 -81 -25
-96 -74 l-13 -46 -61 3 -61 4 2 -64 c2 -61 1 -63 -25 -66 -41 -5 -58 28 -58
118 0 88 -28 160 -79 203 -36 30 -58 34 -86 14 -28 -21 -16 -95 29 -166 39
-64 43 -83 23 -100 -10 -8 -21 -3 -44 22 -58 61 -254 302 -298 367 -40 58
-381 407 -446 456 -15 11 -43 45 -63 76 -41 65 -69 88 -107 88 -31 0 -84 -34
-112 -72 -28 -37 -14 -61 69 -117 120 -81 388 -347 382 -379 -2 -9 -13 -18
-26 -20 -62 -9 -151 54 -202 143 -17 29 -46 67 -64 83 -33 29 -49 35 -142 61
-58 16 -150 79 -214 146 l-54 58 49 41 c27 23 76 67 107 98 32 32 67 62 78 68
24 13 25 38 6 85 -17 41 -37 44 -126 20 -77 -21 -110 -20 -110 4 0 26 50 48
152 67 47 9 119 32 167 55 46 21 97 39 112 39 42 0 63 -38 55 -97 -12 -90 -47
-112 -112 -72 -34 21 -54 19 -54 -6 0 -19 67 -53 120 -61 41 -7 42 -6 105 58
66 68 95 112 96 150 1 13 -9 83 -22 157 l-23 134 54 48 c30 27 60 49 67 49 15
0 26 -20 54 -101 40 -117 99 -214 99 -163 0 11 -9 51 -20 89 -46 158 -36 298
31 435 43 88 63 112 114 135 40 19 48 18 78 -5z m-782 -41 c20 -10 20 -11 3
-30 -25 -28 -54 -25 -54 5 0 20 8 30 28 35 2 1 12 -4 23 -10z m2440 -50 c82
-53 139 -98 139 -110 0 -30 -141 26 -203 80 -40 36 -49 71 -19 71 11 0 48 -19
83 -41z m307 -5 c-5 -26 -38 -31 -38 -7 0 24 21 46 33 34 5 -5 7 -17 5 -27z
m-402 -156 c9 -17 29 -49 45 -71 33 -45 36 -57 14 -57 -8 0 -15 4 -15 10 0 5
-21 23 -47 41 -77 52 -104 80 -92 96 6 7 27 13 45 13 27 0 36 -6 50 -32z
m-2090 -360 c-10 -6 -20 -7 -24 -3 -9 8 20 25 31 18 5 -3 2 -10 -7 -15z m2411
-50 c18 -15 16 -48 -3 -48 -20 0 -77 57 -69 70 6 10 49 -3 72 -22z m-528 -62
c17 -21 3 -44 -36 -57 -29 -9 -38 -9 -50 3 -13 13 -11 18 17 42 35 29 52 32
69 12z m463 -185 c24 -22 30 -33 22 -41 -25 -25 -103 22 -91 55 9 23 33 18 69
-14z m-2762 -107 c0 -18 -24 -44 -40 -44 -22 0 -26 20 -8 38 12 12 48 17 48 6z
m2738 -211 c-5 -26 -38 -29 -38 -4 0 15 6 21 21 21 14 0 19 -5 17 -17z m-2657
-416 c-13 -13 -26 -3 -16 12 3 6 11 8 17 5 6 -4 6 -10 -1 -17z m2094 -237 c0
-18 -33 -26 -47 -12 -6 6 -7 15 -3 22 10 16 50 8 50 -10z m-105 -45 c28 -33
-12 -84 -61 -77 -8 2 -23 -6 -33 -17 -41 -46 -135 -48 -119 -3 25 71 177 141
213 97z m1693 -96 c67 -33 117 -75 117 -96 0 -23 -36 -14 -128 32 -93 46 -118
67 -107 85 11 18 54 11 118 -21z m792 -79 c120 -114 156 -138 175 -114 17 19
3 50 -48 106 -47 51 -66 85 -53 93 5 3 47 -14 93 -38 46 -25 94 -48 108 -52
14 -4 95 -39 180 -78 144 -65 157 -69 185 -57 60 24 67 23 164 -45 52 -36 103
-65 112 -65 49 0 231 -216 259 -307 18 -60 30 -78 60 -96 38 -23 62 -21 78 4
l13 21 26 -23 c33 -31 89 -148 102 -213 6 -28 17 -85 25 -126 8 -41 18 -85 22
-97 5 -18 2 -23 -11 -23 -24 0 -83 38 -95 61 -23 42 -32 20 -25 -56 3 -41 4
-84 0 -95 -10 -33 -49 -42 -95 -24 -25 10 -53 14 -73 10 -38 -7 -41 -5 -172
108 -44 37 -102 81 -129 97 -57 32 -178 64 -203 54 -16 -6 -15 -9 8 -29 15
-13 32 -33 38 -45 7 -12 23 -26 37 -31 25 -10 31 -24 14 -35 -16 -10 -12 -47
9 -81 28 -45 81 -67 145 -60 46 6 56 4 98 -24 108 -72 258 -272 258 -344 0
-12 11 -37 25 -56 29 -40 31 -50 8 -50 -24 0 -110 69 -183 147 -35 38 -86 92
-113 121 -84 89 -106 54 -37 -58 40 -65 48 -94 30 -105 -18 -11 -41 11 -98 93
-32 45 -85 122 -119 171 -76 108 -180 207 -235 221 -21 6 -60 22 -85 35 -62
33 -122 33 -152 1 -24 -26 -24 -30 4 -98 13 -32 -13 -19 -81 42 -76 67 -130
98 -146 82 -7 -7 1 -34 26 -86 42 -89 44 -106 14 -106 -17 0 -71 49 -189 172
l-167 171 -68 8 c-37 5 -70 7 -72 4 -8 -7 31 -49 118 -126 93 -83 115 -119 87
-146 -17 -18 -25 -15 -89 25 -39 24 -50 8 -56 -85 -3 -49 -10 -84 -19 -95 -20
-23 -10 -62 28 -110 42 -54 38 -75 -9 -42 -13 9 -27 27 -32 40 -13 33 -55 41
-96 19 -18 -10 -40 -15 -48 -12 -9 4 -27 31 -40 61 -65 146 -251 373 -287 350
-12 -7 -1 -29 57 -124 82 -135 111 -200 87 -200 -10 0 -136 41 -153 49 -14 8
-20 25 -35 95 -4 17 -30 52 -65 86 -39 37 -62 68 -66 88 -5 25 -21 43 -70 78
-80 56 -122 74 -176 74 -51 0 -130 -22 -136 -38 -4 -13 33 -33 106 -57 56 -18
112 -58 112 -80 0 -14 -22 -25 -51 -25 -11 0 -30 -11 -42 -23 -34 -37 -61 -47
-124 -47 -78 0 -123 14 -195 61 -107 68 -138 47 -48 -33 67 -58 74 -75 85
-195 l7 -73 -26 0 c-46 0 -93 54 -116 131 -15 50 -32 80 -60 110 -59 63 -94
35 -45 -36 28 -42 55 -123 55 -166 0 -45 -20 -53 -92 -35 -35 8 -107 23 -161
32 -93 15 -99 15 -118 -1 -40 -37 -8 -65 74 -65 93 0 137 -27 137 -84 0 -14
10 -37 23 -51 18 -21 35 -28 90 -35 58 -7 73 -13 108 -45 22 -20 60 -45 85
-55 36 -16 44 -24 44 -46 0 -19 21 -49 80 -111 71 -75 96 -113 73 -113 -5 0
-45 6 -91 14 -75 12 -88 17 -123 52 -22 21 -51 55 -65 75 -32 47 -75 66 -110
50 -22 -10 -25 -16 -19 -38 9 -36 60 -111 149 -218 41 -49 78 -101 81 -115 4
-13 27 -46 51 -73 84 -89 113 -202 67 -261 -33 -41 -29 -75 22 -173 71 -137
109 -328 65 -328 -14 0 -43 62 -54 115 -4 16 -25 39 -58 61 -36 25 -64 56 -87
95 -63 110 -122 193 -163 229 -35 33 -42 35 -55 22 -28 -28 9 -120 116 -286
60 -92 71 -123 51 -136 -20 -13 -8 -40 60 -141 74 -109 130 -216 130 -249 0
-11 -9 -34 -19 -51 -22 -36 -52 -135 -54 -176 -1 -16 -5 -28 -8 -28 -3 0 -26
44 -50 98 -24 53 -56 119 -72 146 -15 26 -43 85 -61 130 -18 45 -56 119 -85
163 -50 78 -148 183 -171 183 -20 0 -1 -61 43 -135 23 -38 99 -185 169 -325
103 -205 128 -262 126 -290 -2 -29 -7 -34 -23 -32 -36 6 -67 36 -84 82 -19 52
-62 83 -83 62 -22 -22 -13 -110 18 -187 35 -85 41 -202 12 -231 -15 -16 -18
-15 -44 5 -60 47 -74 15 -32 -74 36 -78 45 -167 16 -173 -20 -4 -37 25 -79
140 -41 113 -67 165 -86 172 -8 3 -32 1 -53 -5 -34 -10 -42 -9 -68 10 -17 11
-40 21 -51 21 -28 0 -28 -38 -1 -82 11 -18 20 -36 20 -39 0 -4 -19 -3 -42 2
-58 11 -56 12 -63 -12 -8 -23 -29 -23 -100 4 -51 20 -77 5 -86 -47 -3 -21 -15
-47 -27 -58 -30 -30 -64 -17 -106 42 -54 75 -111 80 -129 11 -5 -20 -16 -35
-27 -38 -11 -3 -26 -16 -35 -29 -8 -13 -33 -33 -54 -44 -21 -10 -48 -31 -58
-46 l-20 -27 -31 18 c-57 34 -77 -11 -47 -107 33 -110 28 -224 -11 -263 -23
-23 -37 -14 -51 33 -6 24 -21 54 -32 69 -15 17 -21 40 -21 73 0 77 -18 157
-72 319 -57 171 -110 266 -153 277 -49 12 -51 -11 -5 -65 67 -81 89 -153 115
-367 19 -165 19 -248 1 -263 -21 -17 -27 -2 -37 91 -11 92 -9 88 -71 158 -59
67 -72 61 -66 -32 4 -48 2 -68 -6 -65 -6 2 -12 14 -14 28 -2 13 -12 53 -22 89
-11 36 -29 114 -39 174 -16 89 -29 127 -73 213 -66 130 -110 185 -146 181 -37
-4 -37 -20 2 -67 45 -54 96 -207 103 -311 6 -76 6 -76 -29 -113 -39 -41 -81
-49 -122 -22 -26 17 -31 29 -111 235 -77 199 -79 205 -132 261 -75 80 -133
100 -118 40 4 -14 35 -87 71 -162 58 -125 64 -143 64 -203 0 -47 6 -77 21
-106 13 -24 19 -49 15 -63 -6 -24 -71 -105 -78 -97 -2 3 -45 51 -95 106 -100
112 -93 95 -127 307 -9 54 -23 112 -32 129 l-16 32 -13 -31 c-16 -37 -29 -47
-42 -30 -19 23 -71 263 -83 377 -12 126 -32 194 -66 226 -27 26 -44 103 -44
204 0 43 -7 134 -16 202 -31 238 0 353 132 479 168 161 169 163 104 204 -22
14 -40 32 -40 41 0 9 22 41 48 72 93 110 149 270 99 280 -26 5 -53 -22 -99
-100 -70 -117 -220 -238 -300 -240 -37 -1 -52 14 -44 46 8 31 42 50 118 65 73
15 122 48 126 84 3 21 -1 27 -16 27 -10 0 -27 -9 -37 -20 -20 -22 -80 -44 -95
-35 -15 9 -12 41 6 55 50 42 30 84 -37 74 -47 -8 -49 0 -10 41 35 36 62 85 54
98 -9 15 -61 -1 -109 -34 -24 -17 -50 -29 -57 -26 -6 2 -23 26 -37 53 -25 49
-25 49 -83 55 -51 6 -64 12 -101 48 l-42 41 -49 -50 c-64 -65 -79 -64 -101 3
-21 64 -30 77 -59 77 -26 0 -46 -20 -100 -103 -44 -67 -73 -81 -106 -51 -18
16 -20 16 -39 -1 -11 -10 -35 -46 -54 -79 -56 -100 -111 -141 -145 -107 -30
30 -34 90 -15 234 9 74 14 146 10 160 -13 54 -55 21 -57 -45 0 -18 -10 -67
-22 -108 -19 -65 -25 -75 -47 -78 -14 -2 -44 -22 -68 -45 l-42 -41 -30 17
c-17 10 -34 15 -40 12 -5 -3 -36 -61 -69 -128 -33 -67 -74 -137 -91 -156 -30
-32 -32 -33 -48 -17 -16 16 -15 20 12 69 22 40 30 68 33 122 5 80 -9 116 -47
125 -14 3 -26 12 -28 21 -1 8 29 52 68 97 38 46 70 88 70 94 0 6 20 37 45 70
46 62 59 92 53 125 -7 38 -42 26 -99 -34 -55 -58 -266 -340 -326 -435 -53 -86
-73 -86 -73 -1 0 37 -7 72 -21 100 -23 47 -61 79 -80 68 -20 -13 -39 -73 -39
-124 0 -34 -4 -51 -15 -55 -11 -4 -15 -21 -15 -63 0 -76 -31 -187 -82 -292
-35 -73 -42 -98 -48 -180 -5 -53 -11 -104 -15 -113 -19 -48 -58 3 -79 104 -15
74 -5 182 30 329 28 119 28 152 0 157 -25 5 -30 -5 -72 -138 -20 -63 -49 -140
-64 -170 -15 -30 -30 -69 -34 -85 -10 -47 -42 -92 -77 -111 -32 -16 -32 -16
-61 15 -16 17 -36 31 -45 31 -13 0 -15 9 -9 53 21 180 20 203 -8 252 l-27 46
40 60 c70 105 78 174 20 174 -16 0 -31 -11 -46 -35 -32 -50 -55 -71 -73 -67
-42 8 7 132 81 204 30 29 49 56 49 70 0 48 23 125 46 152 15 18 41 33 70 40
74 19 144 70 158 117 7 24 146 100 204 112 43 9 53 38 28 77 -9 13 -16 33 -16
45 0 25 36 27 103 4 44 -15 49 -15 72 0 21 14 25 25 25 62 0 95 65 116 255 84
163 -27 159 -27 187 22 35 63 43 65 146 33 107 -33 128 -30 178 25 21 22 44
40 53 40 9 0 52 -12 96 -26 62 -20 112 -27 225 -33 170 -9 187 -15 334 -116
118 -80 151 -95 209 -95 43 0 63 -10 146 -71 42 -31 51 -19 45 59 -7 94 7 110
49 57 66 -82 140 -154 173 -170 32 -15 37 -15 59 -1 30 20 59 20 74 2 6 -7 22
-46 36 -86 47 -138 95 -190 173 -190 44 0 61 -9 78 -41 20 -39 44 -37 99 11
26 22 62 47 81 55 43 18 52 40 30 78 -24 43 -8 50 54 26 30 -12 65 -25 78 -30
12 -5 22 -17 22 -28 0 -37 -52 -186 -86 -248 -38 -69 -39 -73 -20 -73 23 0 71
62 93 121 38 97 114 381 129 484 10 65 13 125 8 173 -6 71 -6 74 22 103 l28
29 -28 29 c-25 26 -30 41 -37 116 l-7 87 -57 59 c-40 42 -55 65 -53 81 4 33
34 34 77 4 31 -22 45 -26 77 -21 66 10 92 -15 232 -227 59 -89 85 -138 89
-167 13 -96 -73 -18 -162 149 -62 115 -86 147 -104 135 -19 -11 -12 -35 29
-110 49 -89 53 -136 14 -176 l-26 -28 70 -45 c76 -49 80 -56 102 -176 13 -74
19 -85 75 -125 22 -16 52 -40 67 -54 l28 -25 -21 -22 c-27 -29 -18 -56 26 -80
43 -23 68 -12 73 32 2 16 7 33 12 37 10 11 59 -14 89 -47 23 -24 24 -29 14
-72 -9 -41 -8 -49 8 -65 11 -11 22 -19 27 -19 4 0 35 -5 70 -10 55 -9 68 -8
107 9 29 13 49 30 57 48 18 39 25 43 95 43 56 0 64 3 79 25 23 35 6 72 -57
125 -61 51 -62 68 -7 76 22 4 50 16 60 26 25 25 35 16 19 -18 -17 -39 -1 -49
40 -26 42 25 59 18 98 -35 30 -41 33 -43 84 -43 97 0 133 23 51 33 -60 6 -94
38 -94 87 0 48 24 80 60 80 29 0 48 -16 119 -100 25 -29 33 -33 48 -24 21 13
30 71 14 87 -6 6 -11 23 -11 38 0 21 7 29 29 37 23 8 32 21 46 61 18 55 30 65
88 76 23 5 37 13 37 22 0 8 -26 42 -58 76 -88 94 -88 94 -67 117 27 30 59 25
96 -17 63 -70 133 -167 123 -170 -64 -23 -79 -56 -26 -61 37 -4 47 12 58 96 6
47 5 49 -45 107 -51 60 -62 84 -38 86 49 4 118 -21 169 -62 15 -12 33 -19 42
-16 18 7 21 54 8 102 -17 60 -5 65 90 36 235 -72 255 -75 293 -36 30 29 32 65
5 124 -21 44 -19 61 5 61 23 0 87 62 102 99 l14 34 77 -5 c59 -4 79 -9 87 -23
33 -57 54 -81 78 -95 27 -14 29 -14 48 9 25 31 24 37 -12 71 -20 17 -29 34
-26 44 8 21 70 36 148 36 140 0 265 46 308 113 13 20 33 37 43 37 10 0 65 -45
123 -100z m-1010 -50 c8 -14 -42 -51 -78 -57 -66 -10 -115 19 -86 53 17 20
152 24 164 4z m-326 -69 c19 -12 6 -41 -17 -41 -25 0 -58 36 -40 43 20 8 42 8
57 -2z m-1761 -129 c3 -16 -2 -22 -17 -22 -24 0 -35 15 -27 36 9 23 40 13 44
-14z m1993 -2 c24 -14 25 -37 0 -45 -23 -7 -99 9 -115 25 -25 25 72 42 115 20z
m-2336 -115 c0 -43 -3 -50 -20 -50 -15 0 -21 8 -23 29 -5 45 6 78 26 74 13 -3
17 -14 17 -53z m-3109 -80 c20 -8 34 -20 32 -27 -8 -23 -53 -41 -81 -34 -29 7
-63 49 -52 66 9 15 60 12 101 -5z m577 2 c52 -22 61 -40 33 -66 -21 -20 -27
-21 -48 -11 -43 23 -88 61 -88 76 0 18 59 19 103 1z m-309 -46 c7 -11 -14 -20
-31 -13 -7 2 -13 8 -13 13 0 12 37 12 44 0z m2866 -158 c0 -58 -23 -93 -60
-93 -16 0 -20 7 -20 38 0 49 17 108 37 128 15 15 18 15 30 -2 7 -10 13 -42 13
-71z m1609 45 c37 -38 42 -78 10 -78 -25 0 -75 34 -90 61 -29 54 31 67 80 17z
m-4564 12 c7 -11 -30 -36 -66 -45 -37 -9 -49 13 -19 37 24 19 75 24 85 8z
m-261 -116 c24 -9 9 -24 -24 -24 -36 0 -61 10 -54 21 6 10 54 12 78 3z m-160
-59 c67 -36 116 -75 116 -93 0 -13 -13 -14 -89 -9 -115 9 -127 -8 -38 -52 42
-21 49 -57 13 -71 -17 -6 -42 -5 -81 5 -63 17 -121 19 -129 6 -4 -5 2 -23 11
-40 16 -28 16 -33 3 -41 -24 -15 -90 -12 -96 5 -10 25 132 238 199 298 25 23
35 22 91 -8z m3867 -50 c65 -63 69 -65 118 -65 61 0 117 -26 155 -71 41 -49
32 -64 -38 -62 -32 1 -72 6 -89 12 -18 5 -44 12 -59 15 -39 9 -86 52 -130 120
-33 52 -51 116 -31 116 3 0 37 -29 74 -65z m-528 3 c6 -16 -10 -58 -21 -58
-23 0 -31 26 -16 48 17 25 30 28 37 10z m-333 -383 c0 -8 -4 -15 -9 -15 -13 0
-22 16 -14 24 11 11 23 6 23 -9z m4260 -59 c-13 -13 -35 7 -25 24 5 8 11 8 21
-1 10 -8 12 -15 4 -23z m-558 -6 c10 -14 21 -42 25 -63 7 -46 -11 -49 -56 -11
-23 19 -31 34 -31 58 0 54 28 61 62 16z m433 -130 c27 -39 29 -60 5 -45 -15 9
-70 85 -70 97 0 18 37 -12 65 -52z m1120 12 c0 -18 -20 -15 -23 4 -3 10 1 15
10 12 7 -3 13 -10 13 -16z m265 -84 c23 -37 25 -58 8 -58 -22 0 -48 33 -48 62
0 37 16 36 40 -4z m-3270 -33 c10 -12 9 -16 -4 -21 -9 -3 -23 -3 -32 0 -13 5
-14 9 -4 21 7 8 16 15 20 15 4 0 13 -7 20 -15z m3113 -33 c29 -32 38 -70 21
-87 -19 -19 -24 -19 -52 1 -30 21 -33 104 -4 104 11 0 26 -8 35 -18z m-146
-113 c47 -84 64 -129 47 -129 -34 0 -124 151 -124 208 0 41 22 19 77 -79z
m-7573 65 c8 -22 -11 -54 -33 -54 -29 0 -45 25 -31 49 13 25 55 28 64 5z
m-1040 -267 c-12 -42 -64 -64 -64 -28 0 22 47 64 62 55 5 -3 6 -15 2 -27z
m2853 -144 c7 -18 -2 -34 -66 -119 -58 -78 -102 -124 -118 -124 -7 0 -17 8
-22 19 -24 45 37 143 133 213 45 32 64 35 73 11z m-2827 -2 c0 -12 -20 -25
-27 -18 -7 7 6 27 18 27 5 0 9 -4 9 -9z m2580 -41 c0 -32 -40 -80 -66 -80 -14
0 0 38 23 62 28 29 43 35 43 18z m-2524 -155 c15 -37 -47 -116 -66 -85 -11 17
0 56 21 79 23 25 37 27 45 6z m244 -106 c-8 -41 -25 -68 -35 -57 -6 6 10 114
22 153 11 33 21 -49 13 -96z m2290 -56 c-17 -50 -39 -83 -56 -83 -18 0 -18 22
1 67 33 80 80 93 55 16z m-2474 -48 c-6 -33 -39 -75 -58 -75 -19 0 -1 80 29
123 l28 41 3 -29 c2 -15 1 -42 -2 -60z m2631 -707 c-3 -7 -5 -2 -5 12 0 14 2
19 5 13 2 -7 2 -19 0 -25z m3135 -332 c6 -14 8 -32 4 -41 -10 -26 -36 1 -36
36 0 35 16 38 32 5z m-909 -540 c9 -7 17 -16 17 -20 0 -12 -18 -6 -41 14 -28
22 -6 28 24 6z m-388 -76 c21 -23 12 -39 -13 -24 -19 12 -29 44 -14 44 5 0 17
-9 27 -20z m-880 -71 c19 -29 -21 -89 -59 -89 -38 0 -50 23 -32 58 9 17 21 32
28 35 23 9 57 7 63 -4z m1423 -41 c17 -17 15 -42 -6 -61 -23 -21 -42 -5 -42
33 0 40 23 53 48 28z m-1231 -155 c4 -16 8 -100 8 -188 0 -204 -25 -298 -56
-217 -8 19 -8 80 1 222 6 107 14 198 16 202 10 16 24 7 31 -19z m-137 -394
c11 -41 8 -69 -8 -69 -22 0 -43 96 -26 113 12 12 23 -3 34 -44z m74 -331 c19
-31 23 -54 41 -212 8 -76 22 -167 30 -202 8 -36 19 -136 25 -223 5 -87 21
-255 35 -373 23 -203 24 -258 4 -258 -21 0 -73 261 -114 585 -29 220 -68 682
-59 696 9 15 23 10 38 -13z m176 -1532 c14 -74 10 -103 -9 -67 -17 31 -28 147
-14 138 6 -4 16 -36 23 -71z m7 -208 c-3 -8 -6 -5 -6 6 -1 11 2 17 5 13 3 -3
4 -12 1 -19z m1192 -910 c11 -11 18 -25 15 -30 -8 -13 -59 -9 -80 7 -19 15
-19 15 0 30 27 20 42 19 65 -7z m56 -68 c3 -5 2 -10 -4 -10 -5 0 -13 5 -16 10
-3 6 -2 10 4 10 5 0 13 -4 16 -10z m339 -80 c12 -12 -2 -30 -23 -30 -21 0 -41
19 -41 38 0 10 7 12 28 7 15 -3 31 -10 36 -15z m147 -25 c0 -5 -12 -11 -26
-13 -18 -2 -25 1 -25 13 0 12 7 15 25 13 14 -2 26 -7 26 -13z m441 -26 c42 -9
61 -20 93 -54 22 -24 51 -46 65 -50 55 -17 102 -71 92 -107 -4 -19 -11 -20
-67 -15 -35 2 -68 8 -74 11 -6 4 -11 24 -11 45 0 21 -6 43 -13 49 -7 6 -53 16
-102 22 -111 14 -200 47 -200 75 0 12 9 22 25 26 40 11 134 10 192 -2z m-2372
-504 c0 -22 -37 -55 -60 -55 -27 0 -25 16 5 45 27 28 55 33 55 10z"/>
<path d="M5503 10814 c-9 -23 9 -48 37 -52 35 -6 46 13 26 42 -19 29 -53 34
-63 10z"/>
<path d="M4158 10393 c-10 -2 -18 -11 -18 -19 0 -17 52 -19 81 -3 39 21 -7 37
-63 22z"/>
<path d="M4305 10044 c-31 -32 7 -93 81 -129 117 -56 174 -39 174 50 0 54 -14
63 -68 47 -32 -10 -39 -9 -76 18 -44 33 -86 38 -111 14z"/>
<path d="M6703 8295 c-7 -21 -2 -25 41 -35 43 -9 46 1 10 29 -32 25 -43 26
-51 6z"/>
<path d="M3261 7866 c-19 -22 -10 -48 22 -66 26 -14 29 -14 43 5 8 11 14 31
12 45 -2 20 -9 26 -34 28 -18 2 -36 -3 -43 -12z"/>
<path d="M3948 7773 c7 -3 16 -2 19 1 4 3 -2 6 -13 5 -11 0 -14 -3 -6 -6z"/>
<path d="M3364 5754 c-8 -30 10 -74 30 -74 19 0 28 43 16 74 -12 33 -38 33
-46 0z"/>
<path d="M5560 5712 c0 -42 29 -128 53 -153 16 -17 22 -19 33 -7 17 17 6 62
-34 132 -33 60 -52 70 -52 28z"/>
<path d="M4093 12664 c-6 -17 18 -66 35 -72 15 -5 22 26 12 52 -11 30 -39 41
-47 20z"/>
<path d="M2550 12142 c0 -8 77 -35 136 -47 23 -4 35 -1 49 15 16 18 17 23 5
30 -18 12 -190 13 -190 2z"/>
<path d="M6052 9685 c-14 -29 2 -34 18 -6 12 24 13 31 2 31 -5 0 -14 -11 -20
-25z"/>
<path d="M4784 8936 c-12 -31 55 -120 82 -109 25 9 15 54 -20 89 -37 37 -54
42 -62 20z"/>
<path d="M2726 8892 c-11 -18 115 -222 138 -222 25 0 25 28 -1 78 -53 103
-119 173 -137 144z"/>
<path d="M5724 3556 c-8 -21 -1 -49 14 -54 8 -2 12 7 12 27 0 33 -17 51 -26
27z"/>
</g>
</svg>
